<?xml version="1.0" encoding="utf-8"?>
<!-- Generator: Adobe Illustrator 24.0.3, SVG Export Plug-In . SVG Version: 6.00 Build 0)  -->
<svg version="1.1" id="Calque_1" xmlns="http://www.w3.org/2000/svg" xmlns:xlink="http://www.w3.org/1999/xlink" x="0px" y="0px"
	 viewBox="0 0 470 470" style="enable-background:new 0 0 470 470;" xml:space="preserve">
<style type="text/css">
	.st0{fill:url(#SVGID_1_);stroke:url(#SVGID_2_);stroke-width:0.5;stroke-miterlimit:10;}
	.st1{fill:url(#SVGID_3_);stroke:url(#SVGID_4_);stroke-width:0.5;stroke-miterlimit:10;}
	.st2{fill:url(#SVGID_5_);stroke:url(#SVGID_6_);stroke-width:0.5;stroke-miterlimit:10;}
	.st3{fill:url(#SVGID_7_);stroke:url(#SVGID_8_);stroke-width:0.5;stroke-miterlimit:10;}
</style>
<g>
	
		<linearGradient id="SVGID_1_" gradientUnits="userSpaceOnUse" x1="128.2" y1="237.05" x2="341.9" y2="237.05" gradientTransform="matrix(1 0 0 -1 0 472)">
		<stop  offset="0" style="stop-color:#210050"/>
		<stop  offset="1" style="stop-color:#4D0030"/>
	</linearGradient>
	<linearGradient id="SVGID_2_" gradientUnits="userSpaceOnUse" x1="127.95" y1="234.95" x2="342.15" y2="234.95">
		<stop  offset="0" style="stop-color:#210051"/>
		<stop  offset="1" style="stop-color:#4E0030"/>
	</linearGradient>
	<path class="st0" d="M332,155.6l-45.4-89.9V45h2.5c4.1,0,7.5-3.4,7.5-7.5v-30c0-4.1-3.4-7.5-7.5-7.5H180.9c-4.1,0-7.5,3.4-7.5,7.5
		v30c0,4.1,3.4,7.5,7.5,7.5h2.5v20.7L138,155.6c-5.5,10.9-9.8,29-9.8,41.2v245.6c0,15.2,12.3,27.5,27.5,27.5h158.7
		c15.2,0,27.5-12.3,27.5-27.5V196.9C341.8,184.7,337.5,166.5,332,155.6L332,155.6z M188.4,15h93.3v15h-93.3L188.4,15L188.4,15z
		 M197.6,70.9c0.5-1,0.8-2.2,0.8-3.4V45h73.3v22.5c0,1.2,0.3,2.3,0.8,3.4l28.5,56.6c-5.4,1.8-9.2,4.6-12.5,7
		c-4.5,3.3-7.7,5.7-14.8,5.7s-10.4-2.4-14.8-5.7c-5.2-3.9-11.7-8.7-23.8-8.7c-12.2,0-18.6,4.8-23.8,8.7c-4.5,3.3-7.7,5.7-14.8,5.7
		s-10.4-2.4-14.8-5.7c-3.3-2.5-7.1-5.3-12.5-7L197.6,70.9L197.6,70.9z M326.8,442.5c0,6.9-5.6,12.5-12.5,12.5H155.7
		c-6.9,0-12.5-5.6-12.5-12.5V196.9c0-9.9,3.8-25.7,8.2-34.5l10.7-21.3c4.3,0.8,7,2.8,10.4,5.4c5.2,3.9,11.7,8.7,23.8,8.7
		c12.2,0,18.6-4.8,23.8-8.7c4.5-3.3,7.7-5.7,14.8-5.7c7.2,0,10.4,2.4,14.8,5.7c5.2,3.9,11.7,8.7,23.8,8.7c12.2,0,18.6-4.8,23.8-8.7
		c3.4-2.6,6.1-4.6,10.4-5.4l10.7,21.3c4.4,8.8,8.2,24.6,8.2,34.5L326.8,442.5L326.8,442.5z"/>
	
		<linearGradient id="SVGID_3_" gradientUnits="userSpaceOnUse" x1="158.159" y1="54.5" x2="173.159" y2="54.5" gradientTransform="matrix(1 0 0 -1 0 472)">
		<stop  offset="0" style="stop-color:#210050"/>
		<stop  offset="1" style="stop-color:#4D0030"/>
	</linearGradient>
	<linearGradient id="SVGID_4_" gradientUnits="userSpaceOnUse" x1="157.95" y1="417.5" x2="173.45" y2="417.5">
		<stop  offset="0" style="stop-color:#210051"/>
		<stop  offset="1" style="stop-color:#4E0030"/>
	</linearGradient>
	<path class="st1" d="M165.7,395c-4.1,0-7.5,3.4-7.5,7.5v30c0,4.1,3.4,7.5,7.5,7.5s7.5-3.4,7.5-7.5v-30
		C173.2,398.4,169.8,395,165.7,395z"/>
	
		<linearGradient id="SVGID_5_" gradientUnits="userSpaceOnUse" x1="158.159" y1="199.5623" x2="178.9538" y2="199.5623" gradientTransform="matrix(1 0 0 -1 0 472)">
		<stop  offset="0" style="stop-color:#210050"/>
		<stop  offset="1" style="stop-color:#4D0030"/>
	</linearGradient>
	<linearGradient id="SVGID_6_" gradientUnits="userSpaceOnUse" x1="157.85" y1="272.4377" x2="179.1747" y2="272.4377">
		<stop  offset="0" style="stop-color:#210051"/>
		<stop  offset="1" style="stop-color:#4E0030"/>
	</linearGradient>
	<path class="st2" d="M174.8,165.8c-3.7-1.9-8.2-0.4-10.1,3.3c-3.3,6.6-6.6,20.3-6.6,27.7v175.6c0,4.1,3.4,7.5,7.5,7.5
		s7.5-3.4,7.5-7.5V196.9c0-5.1,2.7-16.4,5-21C180,172.2,178.5,167.7,174.8,165.8z"/>
	
		<linearGradient id="SVGID_7_" gradientUnits="userSpaceOnUse" x1="213.4" y1="404.5" x2="256.7" y2="404.5" gradientTransform="matrix(1 0 0 -1 0 472)">
		<stop  offset="0" style="stop-color:#210050"/>
		<stop  offset="1" style="stop-color:#4D0030"/>
	</linearGradient>
	<linearGradient id="SVGID_8_" gradientUnits="userSpaceOnUse" x1="213.15" y1="67.5" x2="256.95" y2="67.5">
		<stop  offset="0" style="stop-color:#210051"/>
		<stop  offset="1" style="stop-color:#4E0030"/>
	</linearGradient>
	<path class="st3" d="M220.9,75h28.3c4.1,0,7.5-3.4,7.5-7.5s-3.4-7.5-7.5-7.5h-28.3c-4.1,0-7.5,3.4-7.5,7.5S216.7,75,220.9,75
		L220.9,75z"/>
</g>
</svg>
