<?xml version="1.0" encoding="utf-8"?>
<!-- Generator: Adobe Illustrator 24.0.3, SVG Export Plug-In . SVG Version: 6.00 Build 0)  -->
<svg version="1.1" id="Calque_1" xmlns="http://www.w3.org/2000/svg" xmlns:xlink="http://www.w3.org/1999/xlink" x="0px" y="0px"
	 viewBox="0 0 512 512" style="enable-background:new 0 0 512 512;" xml:space="preserve">
<style type="text/css">
	.st0{fill:url(#SVGID_1_);stroke:url(#SVGID_2_);stroke-miterlimit:10;}
	.st1{fill:url(#SVGID_3_);stroke:url(#SVGID_4_);stroke-width:0.25;stroke-miterlimit:10;}
	.st2{fill:url(#SVGID_5_);stroke:url(#SVGID_6_);stroke-width:0.25;stroke-miterlimit:10;}
	.st3{fill:url(#SVGID_7_);stroke:url(#SVGID_8_);stroke-width:0.25;stroke-miterlimit:10;}
	.st4{fill:url(#SVGID_9_);stroke:url(#SVGID_10_);stroke-width:0.25;stroke-miterlimit:10;}
	.st5{fill:url(#SVGID_11_);stroke:url(#SVGID_12_);stroke-width:0.25;stroke-miterlimit:10;}
</style>
<linearGradient id="SVGID_1_" gradientUnits="userSpaceOnUse" x1="174.2" y1="108.6" x2="266" y2="108.6" gradientTransform="matrix(1 0 0 -1 0 514)">
	<stop  offset="0" style="stop-color:#210050"/>
	<stop  offset="1" style="stop-color:#4D0030"/>
</linearGradient>
<linearGradient id="SVGID_2_" gradientUnits="userSpaceOnUse" x1="173.7" y1="405.4" x2="266.5" y2="405.4">
	<stop  offset="0" style="stop-color:#21004F"/>
	<stop  offset="1" style="stop-color:#4C0030"/>
</linearGradient>
<path class="st0" d="M220.1,359.5c-25.3,0-45.9,20.6-45.9,45.9s20.6,45.9,45.9,45.9s45.9-20.6,45.9-45.9S245.4,359.5,220.1,359.5z
	 M220.1,431.3c-14.3,0-25.9-11.6-25.9-25.9s11.6-25.9,25.9-25.9c14.3,0,25.9,11.6,25.9,25.9C246,419.6,234.4,431.3,220.1,431.3z"/>
<linearGradient id="SVGID_3_" gradientUnits="userSpaceOnUse" x1="366.3" y1="154.3" x2="436.1" y2="154.3" gradientTransform="matrix(1 0 0 -1 0 514)">
	<stop  offset="0" style="stop-color:#210050"/>
	<stop  offset="1" style="stop-color:#4D0030"/>
</linearGradient>
<linearGradient id="SVGID_4_" gradientUnits="userSpaceOnUse" x1="366.175" y1="359.7" x2="436.225" y2="359.7">
	<stop  offset="0" style="stop-color:#21004F"/>
	<stop  offset="1" style="stop-color:#4C0030"/>
</linearGradient>
<path class="st1" d="M401.2,324.8c-19.2,0-34.9,15.7-34.9,34.9s15.7,34.9,34.9,34.9s34.9-15.7,34.9-34.9S420.4,324.8,401.2,324.8z
	 M401.2,374.6c-8.2,0-14.9-6.7-14.9-14.9s6.7-14.9,14.9-14.9c8.2,0,14.9,6.7,14.9,14.9S409.4,374.6,401.2,374.6z"/>
<linearGradient id="SVGID_5_" gradientUnits="userSpaceOnUse" x1="76.7" y1="208.3" x2="142.2078" y2="208.3" gradientTransform="matrix(1 0 0 -1 0 514)">
	<stop  offset="0" style="stop-color:#210050"/>
	<stop  offset="1" style="stop-color:#4D0030"/>
</linearGradient>
<linearGradient id="SVGID_6_" gradientUnits="userSpaceOnUse" x1="76.575" y1="305.7" x2="142.425" y2="305.7">
	<stop  offset="0" style="stop-color:#21004F"/>
	<stop  offset="1" style="stop-color:#4C0030"/>
</linearGradient>
<path class="st2" d="M109.5,272.9c-18.1,0-32.8,14.7-32.8,32.8c0,18.1,14.7,32.8,32.8,32.8s32.8-14.7,32.8-32.8
	S127.6,272.9,109.5,272.9z M109.5,318.4c-7,0-12.8-5.7-12.8-12.8s5.7-12.8,12.8-12.8s12.8,5.7,12.8,12.8S116.5,318.4,109.5,318.4z"
	/>
<linearGradient id="SVGID_7_" gradientUnits="userSpaceOnUse" x1="350.3" y1="415.9" x2="416.7" y2="415.9" gradientTransform="matrix(1 0 0 -1 0 514)">
	<stop  offset="0" style="stop-color:#210050"/>
	<stop  offset="1" style="stop-color:#4D0030"/>
</linearGradient>
<linearGradient id="SVGID_8_" gradientUnits="userSpaceOnUse" x1="350.175" y1="98.1" x2="416.825" y2="98.1">
	<stop  offset="0" style="stop-color:#21004F"/>
	<stop  offset="1" style="stop-color:#4C0030"/>
</linearGradient>
<path class="st3" d="M383.5,131.3c18.3,0,33.2-14.9,33.2-33.2s-14.9-33.2-33.2-33.2s-33.2,14.9-33.2,33.2S365.2,131.3,383.5,131.3z
	 M383.5,84.9c7.3,0,13.2,5.9,13.2,13.2s-5.9,13.2-13.2,13.2s-13.2-5.9-13.2-13.2S376.2,84.9,383.5,84.9z"/>
<linearGradient id="SVGID_9_" gradientUnits="userSpaceOnUse" x1="0" y1="258.3983" x2="512" y2="258.3983" gradientTransform="matrix(1 0 0 -1 0 514)">
	<stop  offset="0" style="stop-color:#210050"/>
	<stop  offset="1" style="stop-color:#4D0030"/>
</linearGradient>
<linearGradient id="SVGID_10_" gradientUnits="userSpaceOnUse" x1="-0.125" y1="255.6017" x2="512.125" y2="255.6017">
	<stop  offset="0" style="stop-color:#21004F"/>
	<stop  offset="1" style="stop-color:#4C0030"/>
</linearGradient>
<path class="st4" d="M511.4,218.5l-1.1-7.4c-9.6-68.3-38.5-132-83.4-184.2C408.1,5,376.3-0.4,351.4,14.1L215.5,92.7
	c-3.6,2.1-5.5,6.1-4.9,10.2c1.3,8.2-1.4,16.3-7.3,22.2c-9.3,9.3-24.1,10.2-34.4,1.9c-3.2-2.6-7.7-2.9-11.2-0.8L28.9,200.7
	c-8.5,4.9-15.5,11.9-20.4,20c-1.6,1.5-2.6,3.4-3,5.6C1.9,234,0,242.3,0,250.9v118.5c0,5.5,4.5,10,10,10c14.3,0,25.9,11.6,25.9,25.9
	S24.3,431.2,10,431.2c-5.5,0-10,4.5-10,10v6c0,32,26,58,58,58h289.6c5.5,0,10-4.5,10-10c0-14.3,11.6-25.9,25.9-25.9
	s25.9,11.6,25.9,25.9c0,5.5,4.5,10,10,10H454c32,0,58-26,58-58V226.6C512,223.9,511.8,221.2,511.4,218.5z M454,485.3h-25.7
	c-4.6-20.5-22.9-35.9-44.8-35.9s-40.2,15.4-44.8,35.9H58c-20,0-36.4-15.5-37.9-35.1c20.5-4.6,35.8-22.9,35.8-44.8
	S40.5,365.2,20,360.6V250.9c0-4.5,0.8-8.8,2.3-12.9h68.1c5.5,0,10-4.5,10-10s-4.5-10-10-10H39l0,0l123.3-71.4
	c17.7,10.2,40.4,7.4,55.2-7.4c8.6-8.6,13.4-20.3,13.4-32.3l130.5-75.5c16.6-9.6,37.8-6,50.4,8.6c42.4,49.2,69.7,109.4,78.7,173.9
	l0.6,4.2H270.4c4.1-11.6,15.2-20,28.3-20c5.5,0,10-4.5,10-10s-4.5-10-10-10c-24.1,0-44.3,17.2-49,40H177c-5.5,0-10,4.5-10,10
	s4.5,10,10,10h72.7c4.6,22.8,24.8,40,49,40c24.1,0,44.3-17.2,49-40H492v209.2C492,468.2,475,485.3,454,485.3z M326.9,238.1
	c-4.1,11.6-15.2,20-28.3,20c-13,0-24.1-8.4-28.3-20H326.9z"/>
<linearGradient id="SVGID_11_" gradientUnits="userSpaceOnUse" x1="125" y1="285.9" x2="145" y2="285.9" gradientTransform="matrix(1 0 0 -1 0 514)">
	<stop  offset="0" style="stop-color:#210050"/>
	<stop  offset="1" style="stop-color:#4D0030"/>
</linearGradient>
<linearGradient id="SVGID_12_" gradientUnits="userSpaceOnUse" x1="124.875" y1="228.1" x2="145.125" y2="228.1">
	<stop  offset="0" style="stop-color:#21004F"/>
	<stop  offset="1" style="stop-color:#4C0030"/>
</linearGradient>
<path class="st5" d="M135,218.1c-2.6,0-5.2,1.1-7.1,2.9s-2.9,4.4-2.9,7.1s1.1,5.2,2.9,7.1c1.8,1.9,4.4,2.9,7.1,2.9s5.2-1.1,7.1-2.9
	s2.9-4.4,2.9-7.1s-1.1-5.2-2.9-7.1S137.6,218.1,135,218.1z"/>
</svg>
