<?xml version="1.0" encoding="utf-8"?>
<!-- Generator: Adobe Illustrator 24.0.3, SVG Export Plug-In . SVG Version: 6.00 Build 0)  -->
<svg version="1.1" id="Calque_1" xmlns="http://www.w3.org/2000/svg" xmlns:xlink="http://www.w3.org/1999/xlink" x="0px" y="0px"
	 viewBox="0 0 512 512" style="enable-background:new 0 0 512 512;" xml:space="preserve">
<style type="text/css">
	.st0{fill:#FFFFFF;}
</style>
<path class="st0" d="M441.1,134.6c-12.2,0-22.1,9.9-22.1,22.1c0,12.2,9.9,22.1,22.1,22.1c12.2,0,22.1-9.9,22.1-22.1c0,0,0,0,0,0
	C463.2,144.5,453.3,134.6,441.1,134.6z M441.1,166.8c-5.6,0-10.1-4.5-10.1-10.1c0-5.6,4.5-10.1,10.1-10.1c5.6,0,10.1,4.5,10.1,10.1
	c0,0,0,0,0,0C451.2,162.3,446.7,166.8,441.1,166.8L441.1,166.8z"/>
<path class="st0" d="M184,80.4c14.4,0,26.1-11.7,26.1-26.1c0-14.4-11.7-26.1-26.1-26.1c-14.4,0-26.1,11.7-26.1,26.1c0,0,0,0,0,0
	C157.9,68.7,169.6,80.3,184,80.4z M184,40.2c7.8,0,14.1,6.3,14.1,14.1c0,7.8-6.3,14.1-14.1,14.1c-7.8,0-14.1-6.3-14.1-14.1
	c0,0,0,0,0,0C169.9,46.5,176.2,40.2,184,40.2z"/>
<path class="st0" d="M284.7,231.8c0-14.4-11.7-26-26.1-26c-14.4,0-26,11.7-26,26.1c0,14.4,11.7,26,26.1,26
	C273,257.9,284.7,246.2,284.7,231.8L284.7,231.8z M258.6,245.9c-7.8,0-14.1-6.3-14.1-14.1c0-7.8,6.3-14.1,14.1-14.1
	c7.8,0,14.1,6.3,14.1,14.1c0,0,0,0,0,0C272.7,239.6,266.4,245.9,258.6,245.9L258.6,245.9z"/>
<path class="st0" d="M86.6,161.8c14.4,0,26.1-11.7,26.1-26.1s-11.7-26.1-26.1-26.1s-26.1,11.7-26.1,26.1c0,0,0,0,0,0
	C60.6,150.1,72.3,161.8,86.6,161.8z M86.6,121.7c7.8,0,14.1,6.3,14.1,14.1c0,7.8-6.3,14.1-14.1,14.1s-14.1-6.3-14.1-14.1
	c0,0,0,0,0,0C72.6,128,78.9,121.7,86.6,121.7z"/>
<path class="st0" d="M478.9,155.2c-1.3-19.8-17.5-35.3-36.8-35.3c-8.9,0-17.6,3.3-24.2,9.3c-19.7-19.2-44.2-35.8-71.4-48
	c-30.8-13.9-62.8-21.3-92.6-21.3c-8.2,0.1-16.4,0.6-24.6,1.5c0.4-2.9,0.5-5.9,0.3-8.8C228,28.7,208.6,10,185.2,10
	s-42.8,18.7-44.3,42.5c-0.6,10.9,2.7,21.7,9.3,30.4l1.2,1.7c-11,6.2-21.6,13.1-31.7,20.6c-8.3-8.8-19.8-13.8-31.9-13.9
	c-23.3,0-42.8,18.7-44.3,42.6c-0.6,10.9,2.7,21.7,9.3,30.4L60,174c-17,32.6-27,72.3-27,107c-0.3,122,98.4,221.1,220.4,221.3
	c122,0.3,221.1-98.4,221.3-220.4c0-0.3,0-0.6,0-0.9c0-24.6-6.3-61.5-14.5-85.8l11-14.6C476.7,173.2,479.5,164.3,478.9,155.2
	L478.9,155.2z M152.9,53.3c1-15.4,13.4-31.3,32.4-31.3s31.4,15.9,32.4,31.4c0.4,8.1-2,16-6.9,22.4l-25.4,34l-25.4-34
	C155,69.4,152.5,61.4,152.9,53.3z M55.5,134.8c1-15.4,13.4-31.3,32.4-31.3s31.4,15.9,32.4,31.4c0.4,8.1-2,16-6.9,22.4l-25.4,34
	l-25.4-34C57.6,150.8,55.2,142.8,55.5,134.8L55.5,134.8z M68.1,184.7l15,20.1c2,2.7,5.7,3.2,8.4,1.2c0.5-0.3,0.9-0.8,1.2-1.2
	l30.2-40.4c10.9-14.3,12.4-33.6,3.9-49.4c10.2-7.6,20.8-14.5,31.9-20.7l21.7,29.1c2,2.7,5.7,3.2,8.4,1.2c0.5-0.3,0.9-0.8,1.2-1.2
	L220.3,83c2.1-2.8,3.9-5.9,5.4-9.1c2.5-0.3,5-0.6,7.4-0.9l25.2,36.4c6,8.6,5.7,20.1-0.7,28.4l-7.1,9.2c-3.5,4.6-9.2,6.9-15,6.2
	l-8.1-1c-11.6-1.5-23,4.1-29,14.2c-3.3,5.7-9.8,8.9-16.3,8l-18.6-2.4c-11.4-1.5-22.6,3.6-29,13.1c-6,8.9-6.2,20.4-0.5,29.5
	l12.3,19.5c4.6,7.2,12.6,11.6,21.2,11.6c4.1,0,8.1-1,11.7-2.9L192,236c6.2-3.3,16.3-3.4,23.6-0.4c0.7,9,3.9,17.6,9.3,24.8l30.2,40.5
	c2,2.7,5.7,3.2,8.4,1.2c0.5-0.3,0.9-0.8,1.2-1.2l15.3-20.5l2,2.7c0.8,1.2,1.7,2.3,2.6,3.4l15.4,18.1c2.8,3.3,2.4,8.2-0.9,11
	c-0.1,0.1-0.2,0.2-0.3,0.2l-23.3,17.9c-6.2,4.8-10.8,11.3-13.1,18.8l-7.8,25.3c-0.6,2-1.6,3.8-2.9,5.4l-7.6,9.1
	c-5.6,6.8-9.1,15.1-10,23.8c-0.4,4.3-3.2,8.1-7.3,9.8c-3,1.3-6.5-0.2-7.8-3.2c-0.2-0.4-0.3-0.9-0.4-1.3l-7.1-42.8
	c-0.9-5.3-3.1-10.3-6.3-14.6l-26.1-34.3c-2.3-3.1-4.1-6.6-5.1-10.3l-8.6-31.1c-3.1-11.1-11.8-19.8-22.9-22.8l-1.9-0.5
	c-3.8-1-7.3-3-10.1-5.7l-16.1-15.2c-2.6-2.4-4.8-5.2-6.5-8.2c-7.7-13.2-22.9-20.1-37.9-17.2c-0.2,0-0.5,0.1-0.7,0.2l-16.1,5.2
	C56.9,210.7,61.9,197.4,68.1,184.7L68.1,184.7z M227.5,230.9c1-15.4,13.4-31.3,32.4-31.3s31.4,15.9,32.4,31.4c0.4,8.1-2,16-6.9,22.4
	l-25.4,34l-25.4-34C229.6,246.9,227.2,238.9,227.5,230.9L227.5,230.9z M462.7,280.9C462.7,396.2,369,490,253.9,490
	S45,396.2,45,280.9c0.1-14.4,1.7-28.8,4.8-43l22.8-7.4c9.9-1.8,19.8,2.8,24.9,11.5c2.3,4,5.3,7.7,8.7,10.9l16.1,15.1
	c4.3,4,9.5,7,15.2,8.5l1.9,0.5c7,1.9,12.5,7.4,14.5,14.4l8.6,31.1c1.4,5.2,3.9,10.1,7.1,14.4l26.1,34.3c2.1,2.7,3.5,5.9,4,9.3
	l7.1,42.8c1.6,9.8,10.8,16.4,20.6,14.8c1.4-0.2,2.8-0.6,4.1-1.2c8.1-3.4,13.6-10.9,14.5-19.6c0.7-6.4,3.2-12.5,7.3-17.4l7.6-9.1
	c2.3-2.8,4.1-6.1,5.2-9.6l7.8-25.3c1.6-5.1,4.7-9.6,8.9-12.8l23.3-17.9c8.7-6.7,10.3-19.1,3.6-27.8c-0.2-0.3-0.4-0.5-0.6-0.7
	l-15.4-18.1c-0.7-0.8-1.4-1.7-2.1-2.6l-4.2-5.7l7.4-9.9c6.6-8.7,9.9-19.5,9.3-30.4c-1.6-23.9-21-42.6-44.3-42.6
	c-21.1,0-39,15.3-43.4,35.8c-10-2.9-21.9-2.3-30.2,2.1l-12.7,6.8c-6,3.2-13.5,1.2-17.1-4.5l-12.3-19.5c-3.2-5-3.1-11.4,0.3-16.3
	c3.9-5.8,10.7-8.8,17.5-7.9l18.6,2.4c11.3,1.4,22.4-4,28.2-13.8c3.5-6,10.2-9.3,17.1-8.4l8.1,1c10,1.2,19.8-2.9,26-10.8l7.1-9.2
	c9.6-12.4,10.1-29.7,1.1-42.6L247,72c2.4-0.1,4.7-0.2,6.9-0.2c28.1,0,58.4,7,87.7,20.2c9.2,4.2,18.1,8.9,26.7,14.1l-16.1,27.6
	c-4.7,8.3-3.7,18.7,2.6,25.9c4.6,5.3,11.1,8.7,18,9.6l2.9,0.4c5.8,0.7,10.6,4.8,12.3,10.3c1.6,5.3,0,11-4.2,14.7l-28.9,25.6
	c-5.9,5.3-9.3,12.8-9.3,20.7v6.8c0,8.2,4.1,15.8,11,20.2c3.4,2.2,5.6,5.8,6,9.9l0.7,6.8c1.1,11.4,10.7,20,22.1,20h16.9
	c14.3,0,27.3-8.5,33.1-21.6l1-2.3c2-4.7,6.6-7.8,11.7-8l4-0.2c0.6,0,1.3-0.1,1.9-0.1l8.5-0.9C462.6,274.9,462.7,278,462.7,280.9
	L462.7,280.9z M461.4,259.6l-8.7,0.9c-0.4,0-0.8,0.1-1.3,0.1l-4,0.2c-9.7,0.4-18.3,6.3-22.1,15.2l-1,2.3
	c-3.8,8.8-12.5,14.4-22.1,14.4h-16.9c-5.3,0-9.7-4-10.2-9.2l-0.7-6.8c-0.7-7.7-5-14.6-11.5-18.7c-3.4-2.2-5.5-6-5.5-10.1V241
	c0-4.5,1.9-8.8,5.3-11.7l28.9-25.6c7.6-6.8,10.6-17.4,7.7-27.2c-3.1-10.1-11.8-17.5-22.3-18.8l-2.9-0.4c-4.1-0.5-7.8-2.5-10.5-5.6
	c-2.9-3.3-3.4-8.2-1.2-12l15.8-27.1c11.4,7.6,22.1,16.3,31.9,25.9c-2.9,5.1-4.6,10.8-5,16.6c-0.5,9.1,2.3,18,7.7,25.2l24.3,32.5
	c2,2.7,5.7,3.2,8.4,1.2c0.5-0.3,0.9-0.8,1.2-1.2l4.5-6C456.1,224.2,459.5,241.8,461.4,259.6z M461.6,173.2l-19.5,26.1l-19.5-26
	c-3.8-5-5.7-11.1-5.4-17.3c0.8-11.8,10.3-24.1,24.9-24.1s24.1,12.2,24.9,24.1C467.3,162.2,465.4,168.3,461.6,173.2L461.6,173.2z"/>
</svg>
