<svg enable-background="new 0 0 480.005 480.005" viewBox="0 0 480.005 480.005" xmlns="http://www.w3.org/2000/svg"><path d="m112.002 208.005h16v16h-16z"/><path d="m152.002 192.005h16v16h-16z"/><path d="m200.002 208.005h16v16h-16z"/><path d="m248.002 192.005h16v16h-16z"/><path d="m304.002 192.005h16v16h-16z"/><path d="m344.002 208.005h16v16h-16z"/><path d="m248.002 48.005h16v16h-16z"/><path d="m184.002 112.005h16v16h-16z"/><path d="m224.002 128.005h16v16h-16z"/><path d="m296.002 112.005h16v16h-16z"/><path d="m403.514 240.181c17.819-19.562 16.406-49.865-3.156-67.684-8.847-8.059-20.389-12.515-32.356-12.492h-20.32c17.717-19.66 16.142-49.96-3.518-67.678-8.823-7.951-20.285-12.343-32.162-12.322h-.552c-4.056-31.967-31.225-55.946-63.448-56h-10.968c-5.987.189-11.305-3.799-12.8-9.6-.316-1.584-.316-3.216 0-4.8.413-2.382-.262-4.824-1.84-6.656-1.6-1.866-3.934-2.941-6.392-2.944-20.547-.286-38.924 12.736-45.464 32.216-5.044 14.874-2.575 31.27 6.624 44 .974 1.319 2.015 2.588 3.12 3.8h-12.28c-26.465-.045-47.957 21.372-48.002 47.838-.02 11.877 4.371 23.339 12.322 32.162h-20.32c-26.461-.051-47.953 21.359-48.004 47.82-.023 11.967 4.433 23.509 12.492 32.356-25.055 1.838-44.455 22.685-44.488 47.808-.004 15.757 7.821 30.487 20.88 39.304l51.568 147.336c1.122 3.21 4.151 5.36 7.552 5.36h256c3.401 0 6.43-2.15 7.552-5.36l51.568-147.336c13.059-8.817 20.884-23.547 20.88-39.304-.024-25.129-19.426-45.986-44.488-47.824zm-217.752-202.976c3.544-10.216 12.126-17.868 22.68-20.224 0 .16.056.32.08.48 2.918 13.348 14.85 22.783 28.512 22.544h10.968c23.413.029 43.401 16.92 47.336 40h-79.336c-10.245-.021-19.866-4.923-25.904-13.2-6.141-8.587-7.756-19.613-4.336-29.6zm-17.76 58.8h144c17.673 0 32 14.327 32 32s-14.327 32-32 32h-144c-17.673 0-32-14.327-32-32s14.327-32 32-32zm-56 80h256c17.673 0 32 14.327 32 32s-14.327 32-32 32h-256c-17.673 0-32-14.327-32-32s14.327-32 32-32zm5.68 288-52.592-150.264c4.526-4.432 10.481-7.109 16.8-7.552 7.723-.508 15.293 2.314 20.8 7.752l1.856 1.856 22.168 148.208zm25.216 0-22.4-149.2 4.616-4.616c10.432-10.401 27.312-10.401 37.744 0l5.304 5.288 7.424 148.528zm89.104 0h-40.384l-7.448-148.856 4.96-4.96c10.432-10.401 27.312-10.401 37.744 0l5.128 5.128zm56.384 0h-40.384v-148.688l5.128-5.128c10.432-10.401 27.312-10.401 37.744 0l4.96 4.96zm16.032 0 7.424-148.528 5.288-5.288c10.432-10.401 27.312-10.401 37.744 0l4.616 4.616-22.384 149.2zm57.904 0h-9.032l22.232-148.208 1.856-1.856c10.34-10.35 27.087-10.439 37.536-.2zm65.376-160.056-.096-.088c-1.654-1.768-3.456-3.392-5.384-4.856-.304-.232-.6-.472-.904-.696-1.885-1.363-3.878-2.57-5.96-3.608-.376-.192-.752-.368-1.144-.552-2.124-.981-4.327-1.784-6.584-2.4-.32-.096-.648-.152-.976-.232-2.418-.628-4.886-1.043-7.376-1.24-1.016-.072-2.024-.104-3.032-.104s-1.928.192-2.896.256c-1.264.088-2.52.152-3.768.344-1.4.224-2.752.592-4.12.952-1.224.32-2.448.584-3.64 1.008-1.495.58-2.956 1.245-4.376 1.992-.944.464-1.92.8-2.824 1.36-2.328 1.36-4.522 2.938-6.552 4.712l-1.88-1.88c-16.683-16.639-43.685-16.639-60.368 0l-1.816 1.776-1.816-1.816c-16.683-16.639-43.685-16.639-60.368 0l-1.816 1.816-1.816-1.816c-16.683-16.639-43.685-16.639-60.368 0l-1.816 1.816-1.816-1.816c-16.683-16.639-43.685-16.639-60.368 0l-1.88 1.88c-10.5-9.352-24.98-12.835-38.584-9.28-.328.08-.656.136-.976.232-2.257.616-4.46 1.419-6.584 2.4-.392.184-.8.36-1.144.552-2.082 1.038-4.075 2.245-5.96 3.608-.304.224-.6.464-.904.696-1.928 1.464-3.729 3.088-5.384 4.856l-.096.088c-2.825-4.824-4.311-10.314-4.304-15.904 0-17.673 14.327-32 32-32h320c17.673 0 32 14.327 32 32 .014 5.603-1.472 11.108-4.304 15.944z"/></svg>