<?xml version="1.0" encoding="utf-8"?>
<!-- Generator: Adobe Illustrator 24.0.3, SVG Export Plug-In . SVG Version: 6.00 Build 0)  -->
<svg version="1.1" id="Calque_1" xmlns="http://www.w3.org/2000/svg" xmlns:xlink="http://www.w3.org/1999/xlink" x="0px" y="0px"
	 viewBox="0 0 480 480" style="enable-background:new 0 0 480 480;" xml:space="preserve">
<style type="text/css">
	.st0{fill:url(#SVGID_1_);stroke:url(#SVGID_2_);stroke-width:0.25;stroke-miterlimit:10;}
	.st1{fill:url(#SVGID_3_);stroke:url(#SVGID_4_);stroke-width:0.25;stroke-miterlimit:10;}
	.st2{fill:url(#SVGID_5_);stroke:url(#SVGID_6_);stroke-width:0.25;stroke-miterlimit:10;}
	.st3{fill:url(#SVGID_7_);stroke:url(#SVGID_8_);stroke-width:0.25;stroke-miterlimit:10;}
	.st4{fill:url(#SVGID_9_);stroke:url(#SVGID_10_);stroke-width:0.25;stroke-miterlimit:10;}
	.st5{fill:url(#SVGID_11_);stroke:url(#SVGID_12_);stroke-width:0.25;stroke-miterlimit:10;}
	.st6{fill:url(#SVGID_13_);stroke:url(#SVGID_14_);stroke-width:0.25;stroke-miterlimit:10;}
	.st7{fill:url(#SVGID_15_);stroke:url(#SVGID_16_);stroke-width:0.25;stroke-miterlimit:10;}
	.st8{fill:url(#SVGID_17_);stroke:url(#SVGID_18_);stroke-width:0.25;stroke-miterlimit:10;}
	.st9{fill:url(#SVGID_19_);stroke:url(#SVGID_20_);stroke-width:0.25;stroke-miterlimit:10;}
	.st10{fill:url(#SVGID_21_);stroke:url(#SVGID_22_);stroke-width:0.25;stroke-miterlimit:10;}
</style>
<linearGradient id="SVGID_1_" gradientUnits="userSpaceOnUse" x1="112.002" y1="216.005" x2="128.002" y2="216.005">
	<stop  offset="0" style="stop-color:#210051"/>
	<stop  offset="1" style="stop-color:#4E0030"/>
</linearGradient>
<linearGradient id="SVGID_2_" gradientUnits="userSpaceOnUse" x1="111.877" y1="216.005" x2="128.127" y2="216.005">
	<stop  offset="0" style="stop-color:#210051"/>
	<stop  offset="1" style="stop-color:#4E0030"/>
</linearGradient>
<path class="st0" d="M112,208h16v16h-16V208z"/>
<linearGradient id="SVGID_3_" gradientUnits="userSpaceOnUse" x1="152.002" y1="200.005" x2="168.002" y2="200.005">
	<stop  offset="0" style="stop-color:#210051"/>
	<stop  offset="1" style="stop-color:#4E0030"/>
</linearGradient>
<linearGradient id="SVGID_4_" gradientUnits="userSpaceOnUse" x1="151.877" y1="200.005" x2="168.127" y2="200.005">
	<stop  offset="0" style="stop-color:#210051"/>
	<stop  offset="1" style="stop-color:#4E0030"/>
</linearGradient>
<path class="st1" d="M152,192h16v16h-16V192z"/>
<linearGradient id="SVGID_5_" gradientUnits="userSpaceOnUse" x1="200.002" y1="216.005" x2="216.002" y2="216.005">
	<stop  offset="0" style="stop-color:#210051"/>
	<stop  offset="1" style="stop-color:#4E0030"/>
</linearGradient>
<linearGradient id="SVGID_6_" gradientUnits="userSpaceOnUse" x1="199.877" y1="216.005" x2="216.127" y2="216.005">
	<stop  offset="0" style="stop-color:#210051"/>
	<stop  offset="1" style="stop-color:#4E0030"/>
</linearGradient>
<path class="st2" d="M200,208h16v16h-16V208z"/>
<linearGradient id="SVGID_7_" gradientUnits="userSpaceOnUse" x1="248.002" y1="200.005" x2="264.002" y2="200.005">
	<stop  offset="0" style="stop-color:#210051"/>
	<stop  offset="1" style="stop-color:#4E0030"/>
</linearGradient>
<linearGradient id="SVGID_8_" gradientUnits="userSpaceOnUse" x1="247.877" y1="200.005" x2="264.127" y2="200.005">
	<stop  offset="0" style="stop-color:#210051"/>
	<stop  offset="1" style="stop-color:#4E0030"/>
</linearGradient>
<path class="st3" d="M248,192h16v16h-16L248,192z"/>
<linearGradient id="SVGID_9_" gradientUnits="userSpaceOnUse" x1="304.002" y1="200.005" x2="320.002" y2="200.005">
	<stop  offset="0" style="stop-color:#210051"/>
	<stop  offset="1" style="stop-color:#4E0030"/>
</linearGradient>
<linearGradient id="SVGID_10_" gradientUnits="userSpaceOnUse" x1="303.877" y1="200.005" x2="320.127" y2="200.005">
	<stop  offset="0" style="stop-color:#210051"/>
	<stop  offset="1" style="stop-color:#4E0030"/>
</linearGradient>
<path class="st4" d="M304,192h16v16h-16V192z"/>
<linearGradient id="SVGID_11_" gradientUnits="userSpaceOnUse" x1="344.002" y1="216.005" x2="360.002" y2="216.005">
	<stop  offset="0" style="stop-color:#210051"/>
	<stop  offset="1" style="stop-color:#4E0030"/>
</linearGradient>
<linearGradient id="SVGID_12_" gradientUnits="userSpaceOnUse" x1="343.877" y1="216.005" x2="360.127" y2="216.005">
	<stop  offset="0" style="stop-color:#210051"/>
	<stop  offset="1" style="stop-color:#4E0030"/>
</linearGradient>
<path class="st5" d="M344,208h16v16h-16V208z"/>
<linearGradient id="SVGID_13_" gradientUnits="userSpaceOnUse" x1="248.002" y1="56.005" x2="264.002" y2="56.005">
	<stop  offset="0" style="stop-color:#210051"/>
	<stop  offset="1" style="stop-color:#4E0030"/>
</linearGradient>
<linearGradient id="SVGID_14_" gradientUnits="userSpaceOnUse" x1="247.877" y1="56.005" x2="264.127" y2="56.005">
	<stop  offset="0" style="stop-color:#210051"/>
	<stop  offset="1" style="stop-color:#4E0030"/>
</linearGradient>
<path class="st6" d="M248,48h16v16h-16L248,48z"/>
<linearGradient id="SVGID_15_" gradientUnits="userSpaceOnUse" x1="184.002" y1="120.005" x2="200.002" y2="120.005">
	<stop  offset="0" style="stop-color:#210051"/>
	<stop  offset="1" style="stop-color:#4E0030"/>
</linearGradient>
<linearGradient id="SVGID_16_" gradientUnits="userSpaceOnUse" x1="183.877" y1="120.005" x2="200.127" y2="120.005">
	<stop  offset="0" style="stop-color:#210051"/>
	<stop  offset="1" style="stop-color:#4E0030"/>
</linearGradient>
<path class="st7" d="M184,112h16v16h-16V112z"/>
<linearGradient id="SVGID_17_" gradientUnits="userSpaceOnUse" x1="224.002" y1="136.005" x2="240.002" y2="136.005">
	<stop  offset="0" style="stop-color:#210051"/>
	<stop  offset="1" style="stop-color:#4E0030"/>
</linearGradient>
<linearGradient id="SVGID_18_" gradientUnits="userSpaceOnUse" x1="223.877" y1="136.005" x2="240.127" y2="136.005">
	<stop  offset="0" style="stop-color:#210051"/>
	<stop  offset="1" style="stop-color:#4E0030"/>
</linearGradient>
<path class="st8" d="M224,128h16v16h-16V128z"/>
<linearGradient id="SVGID_19_" gradientUnits="userSpaceOnUse" x1="296.002" y1="120.005" x2="312.002" y2="120.005">
	<stop  offset="0" style="stop-color:#210051"/>
	<stop  offset="1" style="stop-color:#4E0030"/>
</linearGradient>
<linearGradient id="SVGID_20_" gradientUnits="userSpaceOnUse" x1="295.877" y1="120.005" x2="312.127" y2="120.005">
	<stop  offset="0" style="stop-color:#210051"/>
	<stop  offset="1" style="stop-color:#4E0030"/>
</linearGradient>
<path class="st9" d="M296,112h16v16h-16V112z"/>
<linearGradient id="SVGID_21_" gradientUnits="userSpaceOnUse" x1="32.002" y1="240.0027" x2="448.002" y2="240.0027">
	<stop  offset="0" style="stop-color:#210051"/>
	<stop  offset="1" style="stop-color:#4E0030"/>
</linearGradient>
<linearGradient id="SVGID_22_" gradientUnits="userSpaceOnUse" x1="31.877" y1="240.0027" x2="448.127" y2="240.0027">
	<stop  offset="0" style="stop-color:#210051"/>
	<stop  offset="1" style="stop-color:#4E0030"/>
</linearGradient>
<path class="st10" d="M403.5,240.2c17.8-19.6,16.4-49.9-3.2-67.7C391.5,164.4,380,160,368,160h-20.3c17.7-19.7,16.1-50-3.5-67.7
	c-8.8-8-20.3-12.3-32.2-12.3h-0.6c-4.1-32-31.2-55.9-63.4-56h-11c-6,0.2-11.3-3.8-12.8-9.6c-0.3-1.6-0.3-3.2,0-4.8
	c0.4-2.4-0.3-4.8-1.8-6.7C220.8,1.1,218.5,0,216,0c-20.5-0.3-38.9,12.7-45.5,32.2c-5,14.9-2.6,31.3,6.6,44c1,1.3,2,2.6,3.1,3.8H168
	c-26.5,0-48,21.4-48,47.8c0,11.9,4.4,23.3,12.3,32.2H112c-26.5-0.1-48,21.4-48,47.8c0,12,4.4,23.5,12.5,32.4
	C51.4,242,32,262.9,32,288c0,15.8,7.8,30.5,20.9,39.3l51.6,147.3c1.1,3.2,4.2,5.4,7.6,5.4h256c3.4,0,6.4-2.1,7.6-5.4l51.6-147.3
	c13.1-8.8,20.9-23.5,20.9-39.3C448,262.9,428.6,242,403.5,240.2z M185.8,37.2c3.5-10.2,12.1-17.9,22.7-20.2c0,0.2,0.1,0.3,0.1,0.5
	c2.9,13.3,14.9,22.8,28.5,22.5h11c23.4,0,43.4,16.9,47.3,40H216c-10.2,0-19.9-4.9-25.9-13.2C184,58.2,182.3,47.2,185.8,37.2
	L185.8,37.2z M168,96h144c17.7,0,32,14.3,32,32s-14.3,32-32,32H168c-17.7,0-32-14.3-32-32S150.3,96,168,96z M112,176h256
	c17.7,0,32,14.3,32,32s-14.3,32-32,32H112c-17.7,0-32-14.3-32-32S94.3,176,112,176z M117.7,464L65.1,313.7
	c4.5-4.4,10.5-7.1,16.8-7.6c7.7-0.5,15.3,2.3,20.8,7.8l1.9,1.9L126.7,464H117.7z M142.9,464l-22.4-149.2l4.6-4.6
	c10.4-10.4,27.3-10.4,37.7,0l5.3,5.3l7.4,148.5H142.9z M232,464h-40.4l-7.4-148.9l5-5c10.4-10.4,27.3-10.4,37.7,0l5.1,5.1L232,464z
	 M288.4,464H248V315.3l5.1-5.1c10.4-10.4,27.3-10.4,37.7,0l5,5L288.4,464z M304.4,464l7.4-148.5l5.3-5.3c10.4-10.4,27.3-10.4,37.7,0
	l4.6,4.6L337.1,464H304.4z M362.3,464h-9l22.2-148.2l1.9-1.9c10.3-10.4,27.1-10.4,37.5-0.2L362.3,464z M427.7,303.9L427.7,303.9
	c-1.8-1.9-3.6-3.5-5.5-4.9c-0.3-0.2-0.6-0.5-0.9-0.7c-1.9-1.4-3.9-2.6-6-3.6c-0.4-0.2-0.8-0.4-1.1-0.6c-2.1-1-4.3-1.8-6.6-2.4
	c-0.3-0.1-0.6-0.2-1-0.2c-2.4-0.6-4.9-1-7.4-1.2c-1-0.1-2-0.1-3-0.1s-1.9,0.2-2.9,0.3c-1.3,0.1-2.5,0.2-3.8,0.3
	c-1.4,0.2-2.8,0.6-4.1,1c-1.2,0.3-2.4,0.6-3.6,1c-1.5,0.6-3,1.2-4.4,2c-0.9,0.5-1.9,0.8-2.8,1.4c-2.3,1.4-4.5,2.9-6.6,4.7l-1.9-1.9
	c-16.7-16.6-43.7-16.6-60.4,0l-1.8,1.8l-1.8-1.8c-16.7-16.6-43.7-16.6-60.4,0l-1.8,1.8l-1.8-1.8c-16.7-16.6-43.7-16.6-60.4,0
	l-1.8,1.8l-1.8-1.8c-16.7-16.6-43.7-16.6-60.4,0l-1.9,1.9c-10.5-9.4-25-12.8-38.6-9.3c-0.3,0.1-0.7,0.1-1,0.2
	c-2.3,0.6-4.5,1.4-6.6,2.4c-0.4,0.2-0.8,0.4-1.1,0.6c-2.1,1-4.1,2.2-6,3.6c-0.3,0.2-0.6,0.5-0.9,0.7c-1.9,1.5-3.7,3.1-5.4,4.9
	l-0.1,0.1c-2.8-4.8-4.3-10.3-4.3-15.9c0-17.7,14.3-32,32-32h320c17.7,0,32,14.3,32,32C432,293.6,430.5,299.1,427.7,303.9
	L427.7,303.9z"/>
</svg>
