<svg enable-background="new 0 0 480 480" viewBox="0 0 480 480" xmlns="http://www.w3.org/2000/svg" xmlns:xlink="http://www.w3.org/1999/xlink"><linearGradient id="a"><stop offset="0" stop-color="#210050"/><stop offset="1" stop-color="#4d0030"/></linearGradient><linearGradient id="b" gradientUnits="userSpaceOnUse" x1="256.0119" x2="343.9881" xlink:href="#a" y1="255.9699" y2="255.9699"/><linearGradient id="c"><stop offset="0" stop-color="#210051"/><stop offset="1" stop-color="#4d0030"/></linearGradient><linearGradient id="d" gradientUnits="userSpaceOnUse" x1="255.8869" x2="344.1131" xlink:href="#c" y1="255.9699" y2="255.9699"/><linearGradient id="e" gradientUnits="userSpaceOnUse" x1="136" x2="224" xlink:href="#a" y1="255.9818" y2="255.9818"/><linearGradient id="f" gradientUnits="userSpaceOnUse" x1="135.875" x2="224.125" xlink:href="#c" y1="255.9818" y2="255.9818"/><linearGradient id="g" gradientUnits="userSpaceOnUse" x1="160" x2="176" xlink:href="#a" y1="160" y2="160"/><linearGradient id="h" gradientUnits="userSpaceOnUse" x1="159.875" x2="176.125" xlink:href="#c" y1="160" y2="160"/><linearGradient id="i" gradientUnits="userSpaceOnUse" x1="184" x2="200" xlink:href="#a" y1="160" y2="160"/><linearGradient id="j" gradientUnits="userSpaceOnUse" x1="183.875" x2="200.125" xlink:href="#c" y1="160" y2="160"/><linearGradient id="k" gradientUnits="userSpaceOnUse" x1="0" x2="480" xlink:href="#a" y1="240" y2="240"/><linearGradient id="l" gradientUnits="userSpaceOnUse" x1="-.125" x2="480.125" xlink:href="#c" y1="240" y2="240"/><linearGradient id="m" gradientUnits="userSpaceOnUse" x1="214.1127" x2="266.0074" y1="391.477" y2="391.477"><stop offset="0" stop-color="#210051"/><stop offset="1" stop-color="#4e0030"/></linearGradient><linearGradient id="n" gradientUnits="userSpaceOnUse" x1="213.9877" x2="266.1324" xlink:href="#c" y1="391.477" y2="391.477"/><linearGradient id="o" gradientUnits="userSpaceOnUse" x1="339.2946" x2="400.0233" xlink:href="#a" y1="244.8611" y2="244.8611"/><linearGradient id="p" gradientUnits="userSpaceOnUse" x1="339.1696" x2="400.1483" xlink:href="#c" y1="244.8611" y2="244.8611"/><linearGradient id="q" gradientUnits="userSpaceOnUse" x1="178.3819" x2="283.8578" xlink:href="#a" y1="92.8849" y2="92.8849"/><linearGradient id="r" gradientUnits="userSpaceOnUse" x1="178.2569" x2="283.9828" xlink:href="#c" y1="92.8849" y2="92.8849"/><linearGradient id="s" gradientUnits="userSpaceOnUse" x1="79.9887" x2="140.3368" xlink:href="#a" y1="248.8825" y2="248.8825"/><linearGradient id="t" gradientUnits="userSpaceOnUse" x1="79.8637" x2="140.4618" xlink:href="#c" y1="248.8825" y2="248.8825"/><g stroke-miterlimit="10" stroke-width=".25"><path d="m339.9 161.8-5.1-16.9c-6.5-19.2-27.4-29.5-46.6-23-10.8 3.7-19.3 12.2-23 23l-5.1 16.9c-4.3 14.3-5.2 29.3-2.6 44 2.4 12.4 10.2 23 21.3 28.8l-5.8 128.6c-.8 7.2 1.6 14.3 6.4 19.7 10.4 11.4 28.1 12.2 39.5 1.8.6-.6 1.2-1.2 1.8-1.8 4.7-5.2 7.1-12.2 6.4-19.2l-5.8-129.1c11.1-5.9 18.9-16.5 21.3-28.8 2.5-14.7 1.6-29.8-2.7-44zm-13.1 41.2c-1.7 8.9-8.1 16.2-16.6 19.1-3.2 1.2-5.3 4.4-5.2 7.8l6.1 135c.3 2.6-.6 5.3-2.4 7.2-4.8 4.8-12.6 4.8-17.4 0-1.9-2.1-2.8-5-2.4-7.8l6-134.5c.2-3.5-1.9-6.6-5.2-7.8-8.5-3-14.9-10.2-16.6-19.1-2.1-12.2-1.4-24.7 2.2-36.5l5.1-16.9c4-10.7 15.9-16.2 26.7-12.3 5.7 2.1 10.2 6.6 12.3 12.3l5.1 16.9c3.7 11.9 4.4 24.4 2.3 36.6z" fill="url(#b)" stroke="url(#d)"/><path d="m216 120c-4.4 0-8 3.6-8 8v68.7l-21.7 21.7c-1.6 1.6-2.5 3.8-2.3 6.1l7 140c.2 3-.9 6-3 8.2-4.4 4.4-11.5 4.5-15.9.1 0 0 0 0-.1-.1-2.1-2.2-3.2-5.1-3-8.2l7-140c.1-2.3-.7-4.5-2.3-6.1l-21.7-21.7v-68.7c0-4.4-3.6-8-8-8s-8 3.6-8 8v72c0 2.1.8 4.2 2.3 5.7l21.5 21.5-6.8 136.4c-.7 14.9 10.8 27.6 25.7 28.3s27.6-10.8 28.3-25.7c0-.9 0-1.8 0-2.6l-6.8-136.5 21.5-21.5c1.5-1.5 2.3-3.5 2.3-5.7v-72c0-4.3-3.6-7.9-8-7.9z" fill="url(#e)" stroke="url(#f)"/><path d="m168 120c-4.4 0-8 3.6-8 8v64c0 4.4 3.6 8 8 8s8-3.6 8-8v-64c0-4.4-3.6-8-8-8z" fill="url(#g)" stroke="url(#h)"/><path d="m192 120c-4.4 0-8 3.6-8 8v64c0 4.4 3.6 8 8 8s8-3.6 8-8v-64c0-4.4-3.6-8-8-8z" fill="url(#i)" stroke="url(#j)"/><path d="m240 0c-132.5 0-240 107.5-240 240s107.5 240 240 240 240-107.5 240-240c-.1-132.5-107.5-239.9-240-240zm0 464c-123.7 0-224-100.3-224-224s100.3-224 224-224 224 100.3 224 224c-.1 123.7-100.3 223.9-224 224z" fill="url(#k)" stroke="url(#l)"/><path d="m266 390.2c-.4-4.4-4.3-7.6-8.7-7.2-.1 0-.2 0-.3 0-11.3 1.3-22.6 1.3-33.9 0-4.4-.5-8.4 2.6-8.9 7s2.6 8.4 7 8.9c12.5 1.5 25.1 1.5 37.6 0 4.4-.4 7.6-4.3 7.2-8.7z" fill="url(#m)" stroke="url(#n)"/><path d="m362.4 136.9c-2.8-3.4-7.9-3.8-11.3-1-3.4 2.8-3.8 7.9-1 11.3 48.2 57.3 44.5 141.9-8.5 194.8-3.1 3.1-3.1 8.2 0 11.3s8.2 3.1 11.3 0c59-58.7 63.1-152.8 9.5-216.4z" fill="url(#o)" stroke="url(#p)"/><path d="m277.7 84.5c-31.3-7.5-64.1-5.5-94.2 5.8-4.1 1.6-6.2 6.2-4.7 10.3 1.2 3.1 4.2 5.2 7.5 5.2 1 0 1.9-.2 2.8-.5 27.1-10.1 56.6-12 84.8-5.2 4.3 1 8.6-1.6 9.7-5.9s-1.6-8.7-5.9-9.7z" fill="url(#q)" stroke="url(#r)"/><path d="m138 341.6c-27-26.9-42.1-63.5-42-101.6-.1-30.4 9.6-60.1 27.5-84.7 2.7-3.5 1.9-8.5-1.6-11.2s-8.5-1.9-11.2 1.6c0 .1-.1.1-.1.2-46.3 63.6-39.4 151.4 16.1 207.1 3.1 3.1 8.2 3.1 11.3 0s3.1-8.3 0-11.4z" fill="url(#s)" stroke="url(#t)"/></g></svg>