<svg enable-background="new 0 0 480 480" viewBox="0 0 480 480" xmlns="http://www.w3.org/2000/svg"><path d="m160 344h-16c-4.418 0-8 3.582-8 8s3.582 8 8 8h16c4.418 0 8-3.582 8-8s-3.582-8-8-8z"/><path d="m384 344h-192c-4.418 0-8 3.582-8 8s3.582 8 8 8h192c4.418 0 8-3.582 8-8s-3.582-8-8-8z"/><path d="m160 296h-16c-4.418 0-8 3.582-8 8s3.582 8 8 8h16c4.418 0 8-3.582 8-8s-3.582-8-8-8z"/><path d="m384 296h-192c-4.418 0-8 3.582-8 8s3.582 8 8 8h192c4.418 0 8-3.582 8-8s-3.582-8-8-8z"/><path d="m160 248h-16c-4.418 0-8 3.582-8 8s3.582 8 8 8h16c4.418 0 8-3.582 8-8s-3.582-8-8-8z"/><path d="m384 248h-192c-4.418 0-8 3.582-8 8s3.582 8 8 8h192c4.418 0 8-3.582 8-8s-3.582-8-8-8z"/><path d="m160 200h-16c-4.418 0-8 3.582-8 8s3.582 8 8 8h16c4.418 0 8-3.582 8-8s-3.582-8-8-8z"/><path d="m384 200h-192c-4.418 0-8 3.582-8 8s3.582 8 8 8h192c4.418 0 8-3.582 8-8s-3.582-8-8-8z"/><path d="m160 152h-16c-4.418 0-8 3.582-8 8s3.582 8 8 8h16c4.418 0 8-3.582 8-8s-3.582-8-8-8z"/><path d="m384 152h-192c-4.418 0-8 3.582-8 8s3.582 8 8 8h192c4.418 0 8-3.582 8-8s-3.582-8-8-8z"/><path d="m439.896 119.496c-.04-.701-.177-1.393-.408-2.056-.088-.256-.152-.504-.264-.752-.389-.87-.931-1.664-1.6-2.344l-112-112c-.68-.669-1.474-1.211-2.344-1.6-.248-.112-.496-.176-.744-.264-.669-.23-1.366-.37-2.072-.416-.136.024-.288-.064-.464-.064h-224c-4.418 0-8 3.582-8 8v24h-40c-4.418 0-8 3.582-8 8v432c0 4.418 3.582 8 8 8h336c4.418 0 8-3.582 8-8v-40h40c4.418 0 8-3.582 8-8v-304c0-.176-.088-.328-.104-.504zm-111.896-92.184 84.688 84.688h-84.688zm48 436.688h-320v-416h32v376c0 4.418 3.582 8 8 8h280zm48-48h-320v-400h208v104c0 4.418 3.582 8 8 8h104z"/><path d="m192 72h-48c-4.418 0-8 3.582-8 8v48c0 4.418 3.582 8 8 8h48c4.418 0 8-3.582 8-8v-48c0-4.418-3.582-8-8-8zm-8 48h-32v-32h32z"/></svg>