<?xml version="1.0" encoding="utf-8"?>
<!-- Generator: Adobe Illustrator 24.0.3, SVG Export Plug-In . SVG Version: 6.00 Build 0)  -->
<svg version="1.1" id="Calque_1" xmlns="http://www.w3.org/2000/svg" xmlns:xlink="http://www.w3.org/1999/xlink" x="0px" y="0px"
	 viewBox="0 0 512 512" style="enable-background:new 0 0 512 512;" xml:space="preserve">
<style type="text/css">
	.st0{fill:url(#SVGID_1_);stroke:url(#SVGID_2_);stroke-width:0.5;stroke-miterlimit:10;}
</style>
<linearGradient id="SVGID_1_" gradientUnits="userSpaceOnUse" x1="3.4" y1="256.05" x2="509.5" y2="256.05">
	<stop  offset="0" style="stop-color:#210050"/>
	<stop  offset="1" style="stop-color:#4D0030"/>
</linearGradient>
<linearGradient id="SVGID_2_" gradientUnits="userSpaceOnUse" x1="3.15" y1="256.05" x2="509.75" y2="256.05">
	<stop  offset="0" style="stop-color:#210051"/>
	<stop  offset="1" style="stop-color:#4E0030"/>
</linearGradient>
<path class="st0" d="M465,63.3H47.9c-24.5,0-44.5,20-44.5,44.5v296.5c0,24.4,19.9,44.5,44.5,44.5H465c24.4,0,44.5-19.9,44.5-44.5
	V107.8C509.4,83.3,489.6,63.3,465,63.3z M458.8,92.9L257.4,294.4L54.2,92.9H458.8z M33.1,398.1V113.8l142.8,141.6L33.1,398.1z
	 M54.1,419.1L197,276.2l50.1,49.6c5.8,5.7,15.1,5.7,20.9,0l48.8-48.8l142.1,142.1L54.1,419.1L54.1,419.1z M479.8,398.1L337.7,256
	l142.1-142.1L479.8,398.1L479.8,398.1z"/>
</svg>
