<svg enable-background="new 0 0 456.152 456.152" viewBox="0 0 456.152 456.152" xmlns="http://www.w3.org/2000/svg"><path d="m264.651 292.901c-25.8 9.9-54.9 3.7-74.4-15.9-4-4-7.5-8.4-10.4-13.3h79.2c5.5 0 10-4.5 10-10s-4.5-10-10-10h-87.4c-1.7-6.9-2.2-14-1.6-21h94.3c5.5 0 10-4.5 10-10s-4.5-10-10-10h-89.7c3.4-9 8.8-17.1 15.6-23.9 19.5-19.6 48.6-25.9 74.4-16 5.2 2 10.9-.6 12.9-5.7s-.6-10.9-5.7-12.9c-33.2-12.7-70.7-4.6-95.7 20.6-10.6 10.5-18.3 23.6-22.6 37.9h-9.1c-5.5 0-10 4.5-10 10s4.5 10 10 10h5.6c-.5 7 0 14.1 1.3 21h-6.8c-5.5 0-10 4.5-10 10s4.5 10 10 10h12.9c4.4 11 10.7 19.4 18.7 27.4 25.1 25.1 62.6 33.1 95.7 20.4 5.1-2 7.7-7.8 5.7-12.9s-7.8-7.7-12.9-5.7z"/><path d="m389.751 67.601c-.3-.3-.6-.6-.8-.8-42.6-43-100.6-67-161.1-66.8-125.8 0-227.8 102-227.8 227.9 0 60.4 24 118.4 66.7 161.1 88.8 89.2 233 89.6 322.2.8s89.6-233 .8-322.2zm-161.9 368.1c-114.6 0-207.9-93.2-207.9-207.8s93.3-207.9 207.9-207.9 207.8 93.2 207.8 207.8-93.2 207.9-207.8 207.9z"/><path d="m227.851 53.401c-96.2 0-174.4 78.2-174.4 174.4s78.2 174.4 174.4 174.4 174.4-78.2 174.4-174.4-78.2-174.4-174.4-174.4zm0 328.8c-85.1 0-154.4-69.3-154.4-154.4s69.3-154.4 154.4-154.4 154.4 69.3 154.4 154.4-69.3 154.4-154.4 154.4z"/></svg>