<?xml version="1.0" encoding="utf-8"?>
<!-- Generator: Adobe Illustrator 24.0.3, SVG Export Plug-In . SVG Version: 6.00 Build 0)  -->
<svg version="1.1" id="Outline" xmlns="http://www.w3.org/2000/svg" xmlns:xlink="http://www.w3.org/1999/xlink" x="0px" y="0px"
	 viewBox="0 0 512 512" style="enable-background:new 0 0 512 512;" xml:space="preserve">
<style type="text/css">
	.st0{fill:#FFFFFF;stroke:url(#SVGID_1_);stroke-width:0.25;stroke-miterlimit:10;}
	.st1{fill:#FFFFFF;stroke:url(#SVGID_2_);stroke-width:0.25;stroke-miterlimit:10;}
	.st2{fill:#FFFFFF;stroke:url(#SVGID_3_);stroke-width:0.25;stroke-miterlimit:10;}
	.st3{fill:#FFFFFF;stroke:url(#SVGID_4_);stroke-width:0.25;stroke-miterlimit:10;}
</style>
<linearGradient id="SVGID_1_" gradientUnits="userSpaceOnUse" x1="31.875" y1="368" x2="144.125" y2="368">
	<stop  offset="0" style="stop-color:#210050"/>
	<stop  offset="1" style="stop-color:#4D0030"/>
</linearGradient>
<path class="st0" d="M136,304v-8c0-4.4-3.6-8-8-8c-4.4,0-8,3.6-8,8v8h-16c-2.7,0-5.4,0.5-8,1.4V296c0-4.4-3.6-8-8-8s-8,3.6-8,8v9.4
	c-2.6-0.9-5.3-1.4-8-1.4H56v-8c0-4.4-3.6-8-8-8s-8,3.6-8,8v8c-4.4,0-8,3.6-8,8v16c0,3.6,0.8,7.1,2.3,10.3c-1.5,1.5-2.3,3.5-2.3,5.7
	v16c0,3.6,0.8,7.1,2.3,10.3c-1.5,1.5-2.3,3.5-2.3,5.7v16c0,13.2,10.8,24,24,24h24v24c0,4.4,3.6,8,8,8s8-3.6,8-8v-24h24
	c13.2,0,24-10.8,24-24v-16c0-2.1-0.8-4.2-2.3-5.7c1.5-3.2,2.4-6.8,2.3-10.3v-16c0-2.1-0.8-4.2-2.3-5.7c1.5-3.2,2.4-6.8,2.3-10.3v-16
	C144,307.6,140.4,304,136,304z M104,320h24v8c0,4.4-3.6,8-8,8H96v-8C96,323.6,99.6,320,104,320z M128,352v8c0,4.4-3.6,8-8,8H96v-8
	c0-4.4,3.6-8,8-8H128z M48,360v-8h24c4.4,0,8,3.6,8,8v8H56C51.6,368,48,364.4,48,360z M80,328v8H56c-4.4,0-8-3.6-8-8v-8h24
	C76.4,320,80,323.6,80,328z M48,392v-8h24c4.4,0,8,3.6,8,8v8H56C51.6,400,48,396.4,48,392z M128,392c0,4.4-3.6,8-8,8H96v-8
	c0-4.4,3.6-8,8-8h24V392z"/>
<linearGradient id="SVGID_2_" gradientUnits="userSpaceOnUse" x1="-0.125" y1="256" x2="512.125" y2="256">
	<stop  offset="0" style="stop-color:#210050"/>
	<stop  offset="1" style="stop-color:#4D0030"/>
</linearGradient>
<path class="st1" d="M509,305.8l-40-32c-1.4-1.1-3.2-1.8-5-1.8h-32v-40c0-22.1-17.9-40-40-40h-8V88c0-4.4-3.6-8-8-8h-48
	c-4.4,0-8,3.6-8,8v104h-8c-2.7,0-5.4,0.3-8,0.8V72c0-22.1-17.9-40-40-40h-32c-22.1,0-40,17.9-40,40v88H40c-4.4,0-8,3.6-8,8v30.1
	L0.8,260.4c0,0,0,0.1-0.1,0.1c-0.1,0.2-0.2,0.4-0.2,0.6c0,0.1-0.1,0.2-0.1,0.2c-0.1,0.2-0.1,0.4-0.2,0.6c0,0.1,0,0.2-0.1,0.2
	c0,0.2-0.1,0.4-0.1,0.7c0,0.1,0,0.1,0,0.2c0,0.3-0.1,0.6-0.1,0.9v208c0,4.4,3.6,8,8,8h496c4.4,0,8-3.6,8-8V312
	C512,309.6,510.9,307.3,509,305.8z M240,272h8c4.4,0,8,3.6,8,8s-3.6,8-8,8h-8V272z M288,328h22.6c-3.4,9.6-12.5,16-22.6,16h-22.6
	C268.8,334.4,277.8,328,288,328z M352,320c5.4,0,10.8,0.7,16,2.3v27.4c-5.2,1.6-10.6,2.3-16,2.3c-11.2,0-24.7-3.7-30-10.9
	c2.9-4.6,4.8-9.7,5.6-15C333.7,322.2,342.6,320,352,320z M256,360c26.5,0,48,21.5,48,48s-21.5,48-48,48s-48-21.5-48-48
	C208,381.5,229.5,360,256,360z M224,352.6c-6,3.5-11.4,7.9-16,13.1V233.9l16,32V352.6z M208,198.1V192h40c4.4,0,8,3.6,8,8
	s-3.6,8-8,8h-35.1L208,198.1z M192,464h-16V265.9l16-32V464z M208,450.3c4.9,5.5,10.6,10.2,17.1,13.7H208V450.3z M320,408
	c0-2.7-0.2-5.3-0.5-8H368v64h-81.1C307.3,452.7,320,431.3,320,408z M315.3,384c-4-9.7-10.2-18.3-18.3-25c5-1.2,9.7-3.2,13.8-6.2
	c8.5,9.4,23.9,15.2,41.1,15.2c5.4,0,10.8-0.6,16-1.8V384H315.3z M370.3,306.4c-6-1.6-12.1-2.4-18.3-2.4c-12.1,0-23.4,2.9-32.1,8H288
	v-24h105.2L371,305.8C370.8,305.9,370.5,306.1,370.3,306.4L370.3,306.4z M368,96v32h-32V96H368z M336,144h32v48h-32V144z M392,208
	c13.2,0,24,10.8,24,24v40H288v-40c0-13.2,10.8-24,24-24H392z M232,48h32c13.2,0,24,10.8,24,24v128c-10.1,7.5-16,19.4-16,32v83.4
	c-12.1,5.3-20.8,16.2-23.3,29.1c-2.9,0.3-5.9,0.9-8.7,1.6v-42h8c13.3,0,24-10.7,24-24s-10.7-24-24-24h-11.1l-16-32H248
	c13.3,0,24-10.7,24-24s-10.7-24-24-24h-40v-32h40c13.3,0,24-10.7,24-24s-10.7-24-24-24h-40V72C208,58.8,218.8,48,232,48z M208,112
	h40c4.4,0,8,3.6,8,8s-3.6,8-8,8h-40V112z M48,176h144v16H48V176z M160.8,260.4c-0.6,1.1-0.8,2.3-0.8,3.6v200H16V272h120
	c4.4,0,8-3.6,8-8s-3.6-8-8-8H20.9l24-48h142.1L160.8,260.4z M496,464H384V315.8l34.8-27.8h42.4l34.8,27.8V464z"/>
<linearGradient id="SVGID_3_" gradientUnits="userSpaceOnUse" x1="415.875" y1="392" x2="464.125" y2="392">
	<stop  offset="0" style="stop-color:#210050"/>
	<stop  offset="1" style="stop-color:#4D0030"/>
</linearGradient>
<path class="st2" d="M440,368c4.4,0,8,3.6,8,8c0,4.4,3.6,8,8,8s8-3.6,8-8c0-10.2-6.4-19.2-16-22.6V344c0-4.4-3.6-8-8-8s-8,3.6-8,8
	v9.4c-12.5,4.4-19,18.1-14.6,30.6c3.4,9.6,12.5,16,22.6,16c4.4,0,8,3.6,8,8s-3.6,8-8,8s-8-3.6-8-8s-3.6-8-8-8s-8,3.6-8,8
	c0,10.2,6.4,19.2,16,22.6v9.4c0,4.4,3.6,8,8,8s8-3.6,8-8v-9.4c12.5-4.4,19-18.1,14.6-30.6c-3.4-9.6-12.5-16-22.6-16
	c-4.4,0-8-3.6-8-8S435.6,368,440,368z"/>
<linearGradient id="SVGID_4_" gradientUnits="userSpaceOnUse" x1="431.875" y1="312" x2="448.125" y2="312">
	<stop  offset="0" style="stop-color:#210050"/>
	<stop  offset="1" style="stop-color:#4D0030"/>
</linearGradient>
<circle class="st3" cx="440" cy="312" r="8"/>
</svg>
