<?xml version="1.0"?>
<svg xmlns="http://www.w3.org/2000/svg" id="Outline" viewBox="0 0 512 512" width="512" height="512"><path d="M136,304v-8a8,8,0,0,0-16,0v8H104a23.885,23.885,0,0,0-8,1.376V296a8,8,0,0,0-16,0v9.376A23.885,23.885,0,0,0,72,304H56v-8a8,8,0,0,0-16,0v8a8,8,0,0,0-8,8v16a23.844,23.844,0,0,0,2.346,10.341A7.972,7.972,0,0,0,32,344v16a23.844,23.844,0,0,0,2.346,10.341A7.972,7.972,0,0,0,32,376v16a24.027,24.027,0,0,0,24,24H80v24a8,8,0,0,0,16,0V416h24a24.027,24.027,0,0,0,24-24V376a7.972,7.972,0,0,0-2.346-5.659A23.844,23.844,0,0,0,144,360V344a7.972,7.972,0,0,0-2.346-5.659A23.844,23.844,0,0,0,144,328V312A8,8,0,0,0,136,304Zm-32,16h24v8a8.009,8.009,0,0,1-8,8H96v-8A8.009,8.009,0,0,1,104,320Zm24,32v8a8.009,8.009,0,0,1-8,8H96v-8a8.009,8.009,0,0,1,8-8h24Zm-80,8v-8H72a8.009,8.009,0,0,1,8,8v8H56A8.009,8.009,0,0,1,48,360Zm32-32v8H56a8.009,8.009,0,0,1-8-8v-8H72A8.009,8.009,0,0,1,80,328ZM48,392v-8H72a8.009,8.009,0,0,1,8,8v8H56A8.009,8.009,0,0,1,48,392Zm80,0a8.009,8.009,0,0,1-8,8H96v-8a8.009,8.009,0,0,1,8-8h24Z"/><path d="M509,305.753l-40-32A8,8,0,0,0,464,272H432V232a40.045,40.045,0,0,0-40-40h-8V88a8,8,0,0,0-8-8H328a8,8,0,0,0-8,8V192h-8a40.028,40.028,0,0,0-8,.805V72a40.045,40.045,0,0,0-40-40H232a40.045,40.045,0,0,0-40,40v88H40a8,8,0,0,0-8,8v30.111L.845,260.422c-.024.047-.04.1-.063.145-.09.19-.174.384-.25.582-.031.081-.06.162-.089.243-.068.2-.128.4-.181.608-.021.081-.044.162-.062.243-.048.215-.084.432-.115.652-.01.074-.025.147-.034.222A8.038,8.038,0,0,0,0,264V472a8,8,0,0,0,8,8H504a8,8,0,0,0,8-8V312A8,8,0,0,0,509,305.753ZM240,272h8a8,8,0,0,1,0,16h-8Zm48,56h22.629A24.042,24.042,0,0,1,288,344H265.371A24.042,24.042,0,0,1,288,328Zm64-8a53.955,53.955,0,0,1,16,2.312v27.376A53.96,53.96,0,0,1,352,352c-11.194,0-24.713-3.737-30.045-10.892a39.719,39.719,0,0,0,5.586-15.044C333.741,322.233,342.618,320,352,320Zm-96,40a48,48,0,1,1-48,48A48.053,48.053,0,0,1,256,360Zm-32-7.39a64.437,64.437,0,0,0-16,13.126V233.889l16,32Zm-16-154.5V192h40a8,8,0,0,1,0,16H212.944ZM192,464H176V265.889l16-32Zm16-13.736A64.4,64.4,0,0,0,225.06,464H208ZM320,408a64.2,64.2,0,0,0-.518-8H368v64H286.94A64.041,64.041,0,0,0,320,408Zm-4.687-24a64.287,64.287,0,0,0-18.256-25.047,39.807,39.807,0,0,0,13.825-6.173C319.365,362.165,334.765,368,352,368a72,72,0,0,0,16-1.781V384Zm55.024-77.649A71.129,71.129,0,0,0,352,304c-12.058,0-23.415,2.876-32.094,8H288V288H393.194L371,305.753A7.751,7.751,0,0,0,370.337,306.351ZM368,96v32H336V96Zm-32,48h32v48H336Zm56,64a24.028,24.028,0,0,1,24,24v40H288V232a24.028,24.028,0,0,1,24-24ZM232,48h32a24.028,24.028,0,0,1,24,24V200.022A39.962,39.962,0,0,0,272,232v83.35a40.131,40.131,0,0,0-23.271,29.075,63.6,63.6,0,0,0-8.729,1.6V304h8a24,24,0,0,0,0-48H236.944l-16-32H248a24,24,0,0,0,0-48H208V144h40a24,24,0,0,0,0-48H208V72A24.028,24.028,0,0,1,232,48Zm-24,64h40a8,8,0,0,1,0,16H208ZM48,176H192v16H48Zm112.845,84.422A7.994,7.994,0,0,0,160,264V464H16V272H136a8,8,0,0,0,0-16H20.944l24-48H187.056ZM496,464H384V315.845L418.807,288h42.386L496,315.845Z"/><path d="M440,368a8.009,8.009,0,0,1,8,8,8,8,0,0,0,16,0,24.039,24.039,0,0,0-16-22.624V344a8,8,0,0,0-16,0v9.376A24,24,0,0,0,440,400a8,8,0,1,1-8,8,8,8,0,0,0-16,0,24.039,24.039,0,0,0,16,22.624V440a8,8,0,0,0,16,0v-9.376A24,24,0,0,0,440,384a8,8,0,0,1,0-16Z"/><circle cx="440" cy="312" r="8"/></svg>
