<?xml version="1.0" encoding="utf-8"?>
<!-- Generator: Adobe Illustrator 24.0.3, SVG Export Plug-In . SVG Version: 6.00 Build 0)  -->
<svg version="1.1" id="Outline" xmlns="http://www.w3.org/2000/svg" xmlns:xlink="http://www.w3.org/1999/xlink" x="0px" y="0px"
	 viewBox="0 0 512 512" style="enable-background:new 0 0 512 512;" xml:space="preserve">
<style type="text/css">
	.st0{fill:url(#SVGID_1_);stroke:url(#SVGID_2_);stroke-width:0.25;stroke-miterlimit:10;}
	.st1{fill:url(#SVGID_3_);stroke:url(#SVGID_4_);stroke-width:0.25;stroke-miterlimit:10;}
	.st2{fill:url(#SVGID_5_);stroke:url(#SVGID_6_);stroke-width:0.25;stroke-miterlimit:10;}
	.st3{fill:url(#SVGID_7_);stroke:url(#SVGID_8_);stroke-width:0.25;stroke-miterlimit:10;}
	.st4{fill:url(#SVGID_9_);stroke:url(#SVGID_10_);stroke-width:0.25;stroke-miterlimit:10;}
	.st5{fill:url(#SVGID_11_);stroke:url(#SVGID_12_);stroke-width:0.25;stroke-miterlimit:10;}
</style>
<linearGradient id="SVGID_1_" gradientUnits="userSpaceOnUse" x1="16" y1="256.0057" x2="496" y2="256.0057">
	<stop  offset="0" style="stop-color:#210051"/>
	<stop  offset="1" style="stop-color:#4E0030"/>
</linearGradient>
<linearGradient id="SVGID_2_" gradientUnits="userSpaceOnUse" x1="15.875" y1="256.0057" x2="496.125" y2="256.0057">
	<stop  offset="0" style="stop-color:#210051"/>
	<stop  offset="1" style="stop-color:#4E0030"/>
</linearGradient>
<path class="st0" d="M470.3,235.3c-7.9-14.9-16-30.4-22.6-53.5c-9.1-31.7-27.9-46.9-42.1-54c-6.8-3.4-14.1-5.8-21.6-7V48
	c0-4.4-3.6-8-8-8c-3,0-5.7,1.6-7.1,4.2c-20.6-6.6-83.6-17.6-128.1,72.2c-2,4-0.3,8.8,3.6,10.7c0.8,0.4,1.6,0.6,2.4,0.8
	c7.9,1,15.8,1.4,23.7,1.4c12.4,0,24.8-1.1,37-3.5c26.8-5.4,47.2-16.7,60.4-33.3v28.3c-7.5,1.3-14.8,3.6-21.6,7
	c-14.2,7.1-33,22.2-42.1,54c-6.6,23-14.7,38.5-22.6,53.4c-2.4,4.5-4.6,8.8-6.8,13.3c-3.6-0.3-7.2-0.5-10.9-0.5
	c-3.3,0-6.6,0.2-9.9,0.4c-3.9-23.1-14.2-39.7-30.5-49.4c-26.6-15.7-61.8-8-79.6-2.4V160h0c0-0.4,0-0.8-0.1-1.3
	c-0.1-0.6-2.4-14.7-13.3-30.3c-10-14.3-29.3-32.8-64.9-40.3c-3.7-0.8-7.4,1.1-8.9,4.6c-0.5,1.2-13.2,30.5,2.6,53
	c10.8,15.2,31.4,22.9,61.5,22.9c2.3,0,4.7,0,7.2-0.1v28.2c-18.3-5.7-55.2-13.7-82.1,4C26.1,213.7,16,237.7,16,272
	c0,63.8,28.4,123.5,67.6,141.8c7.3,3.5,15.3,5.4,23.4,5.5c10.4-0.1,20.5-3.3,29.1-9.3c10.2,6.9,21.4,10,32.9,9.1
	c32.6,52.5,101.6,68.6,154.1,36.1c8.3-5.2,16-11.4,22.7-18.6c10,2.2,20.1,3.3,30.4,3.4c19,0,47.9-5,72-19.1
	c31.4-18.3,48-47.7,48-84.9C496,284.1,483.5,260.4,470.3,235.3L470.3,235.3z M304.8,110.1c-14.5,2.8-29.3,3.8-44.1,3
	c16.6-29.2,36.8-47.4,60.3-54.2c15-4.3,31-3.7,45.7,1.6C359.2,86.6,338.4,103.3,304.8,110.1z M72.4,136.5
	c-7.2-10.1-5.2-23.4-3.2-31.1c37.2,10.1,51.3,34,56.3,47.1C98.7,153.3,80.4,147.8,72.4,136.5z M141.1,393.9c-3-2.5-7.3-2.5-10.2,0
	c-12.5,10.4-26.1,12.2-40.5,5.5c-15.3-7.2-29.6-23.2-40.3-45.2c-11.8-24.1-18-52.5-18-82.2c0-28.5,7.6-48.1,22.7-58
	c29.1-19.2,77.7,1.1,78.2,1.4c2,0.9,4.3,0.9,6.3,0c0.5-0.2,47.1-19.7,76.4-2.5c12,7.1,19.7,19.9,22.8,38.1
	c-60.2,14.2-97.5,74.5-83.3,134.7c1.4,5.9,3.3,11.7,5.6,17.3C153.8,402,147.3,399,141.1,393.9L141.1,393.9z M264,456
	c-53,0-96-43-96-96s43-96,96-96s96,43,96,96C359.9,413,317,455.9,264,456z M440,407.1c-21.4,12.5-47.1,16.9-64,16.9
	c-6.4-0.1-12.7-0.6-19-1.6c34.5-51.3,20.9-120.9-30.5-155.4c-10.7-7.2-22.6-12.5-35.2-15.7c1.5-2.9,3-5.7,4.5-8.7
	c7.9-14.9,16.8-31.9,23.8-56.5C333.8,137,374.3,136,376,136c1.7,0,42.3,1,56.3,50.2c7,24.6,16,41.6,23.8,56.5
	C468.9,267,480,288.1,480,336C480,367.7,466.5,391.6,440,407.1z"/>
<linearGradient id="SVGID_3_" gradientUnits="userSpaceOnUse" x1="312" y1="400.006" x2="328" y2="400.006">
	<stop  offset="0" style="stop-color:#210051"/>
	<stop  offset="1" style="stop-color:#4E0030"/>
</linearGradient>
<linearGradient id="SVGID_4_" gradientUnits="userSpaceOnUse" x1="311.875" y1="400.006" x2="328.125" y2="400.006">
	<stop  offset="0" style="stop-color:#210051"/>
	<stop  offset="1" style="stop-color:#4E0030"/>
</linearGradient>
<circle class="st1" cx="320" cy="400" r="8"/>
<linearGradient id="SVGID_5_" gradientUnits="userSpaceOnUse" x1="288" y1="424.006" x2="304" y2="424.006">
	<stop  offset="0" style="stop-color:#210051"/>
	<stop  offset="1" style="stop-color:#4E0030"/>
</linearGradient>
<linearGradient id="SVGID_6_" gradientUnits="userSpaceOnUse" x1="287.875" y1="424.006" x2="304.125" y2="424.006">
	<stop  offset="0" style="stop-color:#210051"/>
	<stop  offset="1" style="stop-color:#4E0030"/>
</linearGradient>
<circle class="st2" cx="296" cy="424" r="8"/>
<linearGradient id="SVGID_7_" gradientUnits="userSpaceOnUse" x1="288" y1="376.006" x2="304" y2="376.006">
	<stop  offset="0" style="stop-color:#210051"/>
	<stop  offset="1" style="stop-color:#4E0030"/>
</linearGradient>
<linearGradient id="SVGID_8_" gradientUnits="userSpaceOnUse" x1="287.875" y1="376.006" x2="304.125" y2="376.006">
	<stop  offset="0" style="stop-color:#210051"/>
	<stop  offset="1" style="stop-color:#4E0030"/>
</linearGradient>
<circle class="st3" cx="296" cy="376" r="8"/>
<linearGradient id="SVGID_9_" gradientUnits="userSpaceOnUse" x1="312" y1="352.006" x2="328" y2="352.006">
	<stop  offset="0" style="stop-color:#210051"/>
	<stop  offset="1" style="stop-color:#4E0030"/>
</linearGradient>
<linearGradient id="SVGID_10_" gradientUnits="userSpaceOnUse" x1="311.875" y1="352.006" x2="328.125" y2="352.006">
	<stop  offset="0" style="stop-color:#210051"/>
	<stop  offset="1" style="stop-color:#4E0030"/>
</linearGradient>
<circle class="st4" cx="320" cy="352" r="8"/>
<linearGradient id="SVGID_11_" gradientUnits="userSpaceOnUse" x1="231.9694" y1="308.0367" x2="296.0014" y2="308.0367">
	<stop  offset="0" style="stop-color:#210051"/>
	<stop  offset="1" style="stop-color:#4E0030"/>
</linearGradient>
<linearGradient id="SVGID_12_" gradientUnits="userSpaceOnUse" x1="231.8444" y1="308.0367" x2="296.1264" y2="308.0367">
	<stop  offset="0" style="stop-color:#210051"/>
	<stop  offset="1" style="stop-color:#4E0030"/>
</linearGradient>
<path class="st5" d="M291.6,335.2c4-2,5.6-6.8,3.6-10.7c-0.3-0.7-7.4-14.5-21.8-19c0.3-0.8,0.6-1.5,1-2.2c2.6-4.9,7-7.2,13.6-7.2
	c4.4,0,8-3.6,8-8s-3.6-8-8-8c-11.1,0-18.9,4.3-24,10.2c-5.1-5.9-12.9-10.2-24-10.2c-4.4,0-8,3.6-8,8s3.6,8,8,8
	c6.7,0,11,2.3,13.6,7.2c0.4,0.7,0.7,1.5,1,2.2c-14.4,4.5-21.4,18.3-21.8,19c-2,3.9-0.4,8.8,3.5,10.8c3.9,2,8.8,0.4,10.8-3.5
	c0,0,0-0.1,0.1-0.1c0.1-0.1,6.1-11.6,16.8-11.6c10.7,0,16.8,11.5,16.8,11.6C282.8,335.5,287.6,337.1,291.6,335.2
	C291.6,335.2,291.6,335.2,291.6,335.2L291.6,335.2z"/>
</svg>
