<svg enable-background="new 0 0 512 512" height="512" viewBox="0 0 512 512" width="512" xmlns="http://www.w3.org/2000/svg"><path d="m151.098 439.777-127.841 10.289c-3.058.235-5.07-1.297-5.993-2.237-.924-.941-2.429-2.977-2.125-6.034l17.674-178.252h63.06c4.17 0 7.55-3.38 7.55-7.55s-3.38-7.55-7.55-7.55h-63.06l-17.674-178.252c-.304-3.057 1.201-5.093 2.125-6.034.923-.941 2.935-2.48 5.993-2.237l53.827 4.332c4.177.326 7.797-2.765 8.131-6.92.335-4.156-2.763-7.797-6.92-8.131l-53.827-4.333c-6.726-.545-13.265 1.905-17.981 6.711-4.716 4.804-7.04 11.403-6.376 18.103l18.276 184.311-18.276 184.311c-.664 6.7 1.66 13.298 6.376 18.103 3.816 3.805 10.937 7.417 17.981 6.71l127.841-10.289c4.156-.334 7.255-3.975 6.92-8.131-.333-4.156-3.984-7.246-8.131-6.92z"/><path d="m493.613 255.993 18.276-184.311c.664-6.7-1.66-13.298-6.376-18.103-4.717-4.804-11.263-7.246-17.98-6.711l-231.533 18.635-142.66-11.481c-4.153-.337-7.797 2.763-8.131 6.92-.335 4.156 2.763 7.797 6.92 8.131l136.321 10.971v21.677c0 4.17 3.38 7.55 7.55 7.55s7.55-3.38 7.55-7.55v-21.677l225.193-18.124c3.054-.243 5.07 1.297 5.993 2.237.924.941 2.429 2.977 2.126 6.034l-17.676 178.252h-43.206c-4.17 0-7.55 3.38-7.55 7.55s3.38 7.55 7.55 7.55h43.206l17.675 178.252c.304 3.057-1.201 5.093-2.125 6.034-.923.941-2.938 2.472-5.993 2.237l-225.193-18.124v-20.877c0-4.17-3.38-7.55-7.55-7.55s-7.55 3.38-7.55 7.55v20.877l-62.322 5.016c-4.156.334-7.255 3.975-6.92 8.131.333 4.155 3.963 7.248 8.131 6.92l68.66-5.526 231.532 18.634c5.488.479 12.811-1.559 17.98-6.71 4.716-4.804 7.04-11.403 6.376-18.103z"/><path d="m126.074 96.108c-4.17 0-7.55 3.38-7.55 7.55v85.024c0 4.17 3.38 7.55 7.55 7.55s7.55-3.38 7.55-7.55v-36.42h43.737v36.42c0 4.17 3.38 7.55 7.55 7.55s7.55-3.38 7.55-7.55v-85.024c0-4.17-3.38-7.55-7.55-7.55s-7.55 3.38-7.55 7.55v33.503h-43.737v-33.503c0-4.17-3.38-7.55-7.55-7.55z"/><path d="m388.423 125.807c-3.933-1.376-8.243.692-9.623 4.628l-12.908 36.825-12.69-37.201c-1.828-5.814-11.314-7.648-14.258-.096l-13.38 37.543-12.701-36.96c-1.355-3.945-5.652-6.041-9.594-4.687-3.943 1.355-6.042 5.651-4.686 9.594l19.712 57.361c1.043 3.034 3.889 5.078 7.097 5.096h.043c3.191 0 6.04-2.007 7.112-5.016l13.353-37.47 12.75 37.373c1.039 3.046 3.896 5.098 7.115 5.112h.031c3.206 0 6.064-2.025 7.125-5.053l20.13-57.429c1.38-3.931-.693-8.241-4.628-9.62z"/><path d="m247.443 124.371c-19.895 0-36.08 16.186-36.08 36.08 0 19.895 16.186 36.08 36.08 36.08 19.895 0 36.08-16.185 36.08-36.08 0-19.894-16.185-36.08-36.08-36.08zm0 57.06c-11.568 0-20.98-9.412-20.98-20.98s9.412-20.98 20.98-20.98 20.98 9.412 20.98 20.98-9.412 20.98-20.98 20.98z"/><path d="m171.109 326.352c-3.946-1.368-8.241.728-9.603 4.667l-13.972 40.411-14.344-40.466c-1.394-3.93-5.709-5.982-9.639-4.594-3.93 1.393-5.987 5.709-4.594 9.639l20.666 58.302-7.532 21.787c-1.363 3.941.727 8.24 4.669 9.603.817.283 1.649.417 2.467.417 3.13 0 6.056-1.961 7.135-5.084l29.415-85.079c1.362-3.941-.728-8.24-4.668-9.603z"/><path d="m261.858 325.937c-4.17 0-7.55 3.38-7.55 7.55v38.343c0 14.727 11.929 26.263 27.158 26.263h1.131c15.229 0 27.158-11.536 27.158-26.263v-38.343c0-4.17-3.38-7.55-7.55-7.55s-7.55 3.38-7.55 7.55v38.343c0 6.364-5.184 11.163-12.058 11.163h-1.131c-6.874 0-12.058-4.799-12.058-11.163v-38.343c0-4.17-3.38-7.55-7.55-7.55z"/><path d="m211.939 398.094c19.894 0 36.078-16.184 36.078-36.078s-16.184-36.078-36.078-36.078-36.078 16.185-36.078 36.078 16.184 36.078 36.078 36.078zm0-57.056c11.567 0 20.978 9.411 20.978 20.978s-9.411 20.978-20.978 20.978-20.978-9.411-20.978-20.978 9.411-20.978 20.978-20.978z"/><path d="m207.103 231.896v58.677c0 4.17 3.38 7.55 7.55 7.55s7.55-3.38 7.55-7.55v-34.966c0-.51.326-3.4 6.773-10.185 3.492-3.676 6.505-5.26 6.681-5.352 3.719-1.81 5.293-6.284 3.513-10.028-1.79-3.765-6.295-5.367-10.06-3.577-.408.193-3.25 1.598-6.945 4.678-.378-3.816-3.596-6.797-7.512-6.797-4.171 0-7.55 3.379-7.55 7.55z"/><path d="m152.334 295.044c6.914 0 13.347-2.09 18.709-5.666v1.608c0 4.17 3.38 7.55 7.55 7.55s7.55-3.38 7.55-7.55v-59.503c0-4.17-3.38-7.55-7.55-7.55s-7.55 3.38-7.55 7.55v1.608c-5.362-3.576-11.795-5.666-18.709-5.666-18.643 0-33.81 15.167-33.81 33.81 0 18.642 15.167 33.809 33.81 33.809zm0-52.519c10.316 0 18.709 8.394 18.709 18.71 0 10.317-8.393 18.709-18.709 18.709-10.317 0-18.71-8.393-18.71-18.709 0-10.317 8.394-18.71 18.71-18.71z"/><path d="m252.428 258.197c.006.499.052 1.485.105 3.049.006 20.334 16.552 36.876 36.888 36.876 8.135 0 15.44-2.676 21.124-7.738 3.113-2.773 3.39-7.546.616-10.659-2.772-3.115-7.545-3.39-10.659-.616-2.916 2.597-6.644 3.914-11.08 3.914-9.014 0-16.766-5.501-20.076-13.323l43.137.083c1.266-.037 3.127-.424 5.348-2.206 1.419-1.417 2.217-3.34 2.217-5.344v-4.078c0-18.643-15.167-33.81-33.81-33.81-18.643.001-33.81 15.186-33.81 33.852zm52.193-3.529-36.748-.071c1.68-8.623 9.275-15.151 18.363-15.151 9.126 0 16.746 6.566 18.385 15.222z"/><path d="m361.562 392.943c-3.272-.695-8.188.734-9.74 6.021-1.012 4.336 1.689 8.691 6.006 9.704 2.956.735 8.377-.71 9.732-6.018.69-3.239-.771-8.187-5.998-9.707z"/><path d="m390.934 318.191c-.845-16.284-14.287-29.296-30.601-29.624-16.848-.347-32.012 13.574-31.926 31.278 0 4.17 3.38 7.55 7.55 7.55s7.55-3.38 7.55-7.55c-.191-7.687 7.12-16.505 16.521-16.181 8.437.17 15.388 6.895 15.825 15.311.233 4.493-1.339 8.758-4.426 12.009-3.09 3.254-7.257 5.046-11.736 5.046-4.17 0-7.55 3.38-7.55 7.55v24.818c0 4.17 3.38 7.55 7.55 7.55s7.55-3.38 7.55-7.55v-18.202c5.73-1.435 11.019-4.478 15.136-8.815 5.969-6.285 9.006-14.52 8.557-23.19z"/><path d="m408.448 255.993c0-4.17-3.38-7.55-7.55-7.55h-58.2c-4.17 0-7.55 3.38-7.55 7.55s3.38 7.55 7.55 7.55h58.2c4.17 0 7.55-3.38 7.55-7.55z"/></svg>