<?xml version="1.0" encoding="utf-8"?>
<!-- Generator: Adobe Illustrator 24.0.3, SVG Export Plug-In . SVG Version: 6.00 Build 0)  -->
<svg version="1.1" id="Calque_1" xmlns="http://www.w3.org/2000/svg" xmlns:xlink="http://www.w3.org/1999/xlink" x="0px" y="0px"
	 viewBox="0 0 512 512" style="enable-background:new 0 0 512 512;" xml:space="preserve">
<style type="text/css">
	.st0{fill:url(#SVGID_1_);}
	.st1{fill:url(#SVGID_2_);}
	.st2{fill:url(#SVGID_3_);}
	.st3{fill:url(#SVGID_4_);}
	.st4{fill:url(#SVGID_5_);}
</style>
<linearGradient id="SVGID_1_" gradientUnits="userSpaceOnUse" x1="-5.004611e-04" y1="258.4388" x2="159.2538" y2="258.4388">
	<stop  offset="0" style="stop-color:#210051"/>
	<stop  offset="1" style="stop-color:#000000"/>
</linearGradient>
<path class="st0" d="M151.1,358.4L23.3,364c-3.1,0.1-5.1-0.7-6-1.2c-0.9-0.5-2.4-1.6-2.1-3.3l17.7-97h63.1c4.2,0,7.6-1.8,7.6-4.1
	c0-2.3-3.4-4.1-7.6-4.1H32.8l-17.7-97c-0.3-1.7,1.2-2.8,2.1-3.3c0.9-0.5,2.9-1.3,6-1.2l53.8,2.4c4.2,0.2,7.8-1.5,8.1-3.8
	c0.3-2.3-2.8-4.2-6.9-4.4l-53.8-2.4c-6.7-0.3-13.3,1-18,3.7c-4.7,2.6-7,6.2-6.4,9.8l18.3,100.3L0.1,358.7c-0.7,3.6,1.7,7.2,6.4,9.8
	c3.8,2.1,10.9,4,18,3.7l127.8-5.6c4.2-0.2,7.3-2.2,6.9-4.4C158.9,359.9,155.2,358.2,151.1,358.4z"/>
<linearGradient id="SVGID_2_" gradientUnits="userSpaceOnUse" x1="105.1842" y1="258.4336" x2="512.0005" y2="258.4336">
	<stop  offset="0" style="stop-color:#210051"/>
	<stop  offset="1" style="stop-color:#4E0030"/>
</linearGradient>
<path class="st1" d="M493.6,258.4l18.3-100.3c0.7-3.6-1.7-7.2-6.4-9.8c-4.7-2.6-11.3-3.9-18-3.7L256,154.8l-142.7-6.2
	c-4.2-0.2-7.8,1.5-8.1,3.8c-0.3,2.3,2.8,4.2,6.9,4.4l136.3,6v11.8c0,2.3,3.4,4.1,7.6,4.1s7.6-1.8,7.6-4.1v-11.8l225.2-9.9
	c3.1-0.1,5.1,0.7,6,1.2c0.9,0.5,2.4,1.6,2.1,3.3l-17.7,97H436c-4.2,0-7.5,1.8-7.5,4.1s3.4,4.1,7.5,4.1h43.2l17.7,97
	c0.3,1.7-1.2,2.8-2.1,3.3c-0.9,0.5-2.9,1.3-6,1.2l-225.2-9.9v-11.4c0-2.3-3.4-4.1-7.6-4.1s-7.6,1.8-7.6,4.1v11.4l-62.3,2.7
	c-4.2,0.2-7.3,2.2-6.9,4.4c0.3,2.3,4,3.9,8.1,3.8l68.7-3l231.5,10.1c5.5,0.3,12.8-0.8,18-3.7c4.7-2.6,7-6.2,6.4-9.8L493.6,258.4z"/>
<linearGradient id="SVGID_3_" gradientUnits="userSpaceOnUse" x1="118.524" y1="255.1512" x2="192.461" y2="255.1512">
	<stop  offset="0" style="stop-color:#210051"/>
	<stop  offset="1" style="stop-color:#4E0030"/>
</linearGradient>
<path class="st2" d="M126.1,205.1c-4.2,0-7.6,3.4-7.6,7.6v85c0,4.2,3.4,7.6,7.6,7.6s7.5-3.4,7.5-7.6v-36.4h43.7v36.4
	c0,4.2,3.4,7.6,7.6,7.6s7.6-3.4,7.6-7.6v-85c0-4.2-3.4-7.6-7.6-7.6s-7.6,3.4-7.6,7.6v33.5h-43.7v-33.5
	C133.6,208.5,130.2,205.1,126.1,205.1z"/>
<linearGradient id="SVGID_4_" gradientUnits="userSpaceOnUse" x1="298.1708" y1="270.4226" x2="393.4783" y2="270.4226">
	<stop  offset="0" style="stop-color:#210051"/>
	<stop  offset="1" style="stop-color:#4E0030"/>
</linearGradient>
<path class="st3" d="M388.4,234.8c-3.9-1.4-8.2,0.7-9.6,4.6l-12.9,36.8L353.2,239c-1.8-5.8-11.3-7.6-14.3-0.1l-13.4,37.5l-12.7-37
	c-1.4-3.9-5.7-6-9.6-4.7c-3.9,1.4-6,5.7-4.7,9.6l19.7,57.4c1,3,3.9,5.1,7.1,5.1h0c3.2,0,6-2,7.1-5l13.4-37.5l12.8,37.4
	c1,3,3.9,5.1,7.1,5.1h0c3.2,0,6.1-2,7.1-5.1l20.1-57.4C394.4,240.5,392.4,236.2,388.4,234.8L388.4,234.8z"/>
<linearGradient id="SVGID_5_" gradientUnits="userSpaceOnUse" x1="211.363" y1="269.4322" x2="283.523" y2="269.4322">
	<stop  offset="0" style="stop-color:#210051"/>
	<stop  offset="1" style="stop-color:#4E0030"/>
</linearGradient>
<path class="st4" d="M247.4,233.4c-19.9,0-36.1,16.2-36.1,36.1c0,19.9,16.2,36.1,36.1,36.1c19.9,0,36.1-16.2,36.1-36.1
	C283.5,249.5,267.3,233.4,247.4,233.4L247.4,233.4z M247.4,290.4c-11.6,0-21-9.4-21-21s9.4-21,21-21s21,9.4,21,21
	S259,290.4,247.4,290.4L247.4,290.4z"/>
</svg>
