<?xml version="1.0" encoding="utf-8"?>
<!-- Generator: Adobe Illustrator 24.0.3, SVG Export Plug-In . SVG Version: 6.00 Build 0)  -->
<svg version="1.1" id="Capa_1" xmlns="http://www.w3.org/2000/svg" xmlns:xlink="http://www.w3.org/1999/xlink" x="0px" y="0px"
	 viewBox="0 0 512 512" style="enable-background:new 0 0 512 512;" xml:space="preserve">
<style type="text/css">
	.st0{fill:#FFFFFF;stroke:#4A0033;stroke-width:0.25;stroke-miterlimit:10;}
</style>
<g>
	<g>
		<path class="st0" d="M295.7,187.3c-4.6,0-8.3,3.7-8.3,8.3s3.7,8.3,8.3,8.3s8.3-3.7,8.3-8.3S300.3,187.3,295.7,187.3z"/>
	</g>
</g>
<g>
	<g>
		<path class="st0" d="M500.3,443.7L366.8,310.2C388.5,277.5,400,239.6,400,200C400,89.7,310.3,0,200,0S0,89.7,0,200
			s89.7,200,200,200c39.6,0,77.5-11.5,110.2-33.2l36.9,36.9c0,0,0,0,0,0l96.6,96.6c7.6,7.6,17.6,11.7,28.3,11.7s20.7-4.2,28.3-11.7
			c7.6-7.6,11.7-17.6,11.7-28.3S507.8,451.3,500.3,443.7z M305.5,345.7C305.5,345.7,305.5,345.7,305.5,345.7
			C274.7,368.1,238.2,380,200,380c-99.3,0-180-80.7-180-180S100.7,20,200,20s180,80.7,180,180c0,38.2-11.9,74.7-34.3,105.5
			C334.5,321,321,334.5,305.5,345.7z M326.5,354.8c10.4-8.5,19.8-17.9,28.3-28.3l28.4,28.4c-8.6,10.2-18.1,19.6-28.3,28.3
			L326.5,354.8z M486.1,486.1c-3.8,3.8-8.8,5.9-14.1,5.9s-10.4-2.1-14.1-5.9l-88.8-88.8c10.1-8.7,19.6-18.1,28.3-28.3l88.8,88.8
			c3.8,3.8,5.9,8.8,5.9,14.1S489.9,482.4,486.1,486.1z"/>
	</g>
</g>
<g>
	<g>
		<path class="st0" d="M200,53.6c-80.7,0-146.4,65.7-146.4,146.4S119.3,346.4,200,346.4S346.4,280.7,346.4,200S280.7,53.6,200,53.6z
			 M200,328.1c-70.6,0-128.1-57.5-128.1-128.1S129.4,71.9,200,71.9S328.1,129.4,328.1,200S270.6,328.1,200,328.1z"/>
	</g>
</g>
<g>
	<g>
		<path class="st0" d="M297.4,159.9c-7.2-18.7-19.7-34.7-36.1-46.2c-16.9-11.8-36.7-18.1-57.3-18.1c-4.6,0-8.3,3.7-8.3,8.3
			c0,4.6,3.7,8.3,8.3,8.3c34.3,0,65.5,21.5,77.9,53.6c1.3,3.3,4.4,5.3,7.8,5.3c1,0,2-0.2,3-0.6C296.9,169,299,164.2,297.4,159.9z"/>
	</g>
</g>
</svg>
