<?xml version="1.0" encoding="utf-8"?>
<!-- Generator: Adobe Illustrator 24.0.3, SVG Export Plug-In . SVG Version: 6.00 Build 0)  -->
<svg version="1.1" id="Calque_1" xmlns="http://www.w3.org/2000/svg" xmlns:xlink="http://www.w3.org/1999/xlink" x="0px" y="0px"
	 viewBox="0 0 512 512" style="enable-background:new 0 0 512 512;" xml:space="preserve">
<style type="text/css">
	.st0{fill:url(#SVGID_1_);}
</style>
<linearGradient id="SVGID_1_" gradientUnits="userSpaceOnUse" x1="50.8846" y1="256" x2="461.1154" y2="256">
	<stop  offset="0" style="stop-color:#210051"/>
	<stop  offset="1" style="stop-color:#4E0030"/>
</linearGradient>
<path class="st0" d="M256,512l-12.6-10.2c-1.9-1.6-48.2-39.1-95.1-92.9C83.7,334.6,50.9,268,50.9,210.8v-5.7C50.9,92,142.9,0,256,0
	s205.1,92,205.1,205.1v5.7c0,57.2-32.8,123.9-97.5,198.1c-46.9,53.8-93.1,91.4-95.1,92.9L256,512z M256,40
	c-91,0-165.1,74.1-165.1,165.1v5.7c0,96.7,124.5,213.7,165.1,249.2c40.5-35.5,165.1-152.5,165.1-249.2v-5.7
	C421.1,114.1,347,40,256,40L256,40z M276,269.1c0-8.6,1.7-10.7,14.7-23.2c2.9-2.7,6.1-5.8,9.7-9.4c13.7-13.8,31.6-35.6,28.2-66
	c-3.7-33.4-30.7-60.3-64.2-64c-20.9-2.3-41.8,4.3-57.4,18.2c-15.3,13.7-24.1,33.4-24.1,53.9h40c0-9.3,3.8-17.9,10.8-24.1
	c7.2-6.4,16.5-9.4,26.3-8.3c15,1.7,27.2,13.7,28.8,28.6c1.1,10.5-3.9,20.5-16.8,33.4c-3.2,3.2-6.1,6-8.9,8.7
	c-14.6,13.9-27.1,25.9-27.1,52.1v1h40L276,269.1L276,269.1z M276,300.2h-40v40h40V300.2z"/>
</svg>
