<svg enable-background="new 0 0 511.712 511.712" height="512" viewBox="0 0 511.712 511.712" width="512" xmlns="http://www.w3.org/2000/svg"><path d="m255.856 511.712-12.569-10.155c-1.943-1.571-48.15-39.086-95.012-92.888-64.643-74.216-97.419-140.834-97.419-198.002v-5.667c0-113.037 91.963-205 205-205s205 91.963 205 205v5.667c0 57.168-32.776 123.786-97.419 198.002-46.861 53.802-93.068 91.317-95.012 92.888zm0-471.712c-90.981 0-165 74.019-165 165v5.667c0 96.604 124.47 213.549 165 249.062 40.519-35.502 165-152.451 165-249.062v-5.667c0-90.981-74.019-165-165-165zm20.005 228.996c0-8.613 1.665-10.708 14.735-23.173 2.872-2.739 6.128-5.845 9.656-9.389 13.707-13.771 31.543-35.595 28.2-66.008-3.666-33.347-30.636-60.248-64.129-63.964-20.906-2.32-41.805 4.327-57.34 18.235-15.334 13.726-24.128 33.366-24.128 53.883h40c0-9.29 3.838-17.842 10.807-24.08 7.175-6.424 16.498-9.364 26.25-8.282 15.039 1.668 27.143 13.688 28.78 28.579 1.147 10.448-3.873 20.442-16.79 33.418-3.16 3.175-6.085 5.964-8.913 8.661-14.557 13.882-27.129 25.872-27.129 52.12v1.004h40v-1.004zm-.005 31.004h-40v40h40z"/></svg>