<?xml version="1.0" encoding="utf-8"?>
<!-- Generator: Adobe Illustrator 24.0.3, SVG Export Plug-In . SVG Version: 6.00 Build 0)  -->
<svg version="1.1" id="Calque_1" xmlns="http://www.w3.org/2000/svg" xmlns:xlink="http://www.w3.org/1999/xlink" x="0px" y="0px"
	 viewBox="0 0 511 511" style="enable-background:new 0 0 511 511;" xml:space="preserve">
<style type="text/css">
	.st0{fill:url(#SVGID_1_);}
</style>
<linearGradient id="SVGID_1_" gradientUnits="userSpaceOnUse" x1="0.998" y1="254.5025" x2="511.7101" y2="254.5025">
	<stop  offset="0" style="stop-color:#210051"/>
	<stop  offset="1" style="stop-color:#4E0030"/>
</linearGradient>
<path class="st0" d="M464-1c-0.6,0-1.1,0-1.7,0.1c-3.3,0.3-76.2,7-103.6,60.2l-99-10.1c-24-2.4-47.5,5.9-64.5,23L24.3,242.4
	c-31.1,31.1-31,81.7,0,112.8l131,131.1c15.7,15.8,36.4,23.6,57,23.6c20.3,0,40.5-7.7,55.9-23c7.8-7.8,7.8-20.4,0-28.2
	c-7.8-7.8-20.4-7.8-28.2,0c-15.4,15.4-40.7,15.1-56.4-0.6L52.5,327c-15.5-15.5-15.5-40.8,0-56.4l170.8-170.3
	c8.5-8.5,20.3-12.7,32.3-11.5l151.8,15.4l2,19.4c-27.7,10.3-54,12-54.6,12c-11,0.6-19.4,10-18.8,21c0.6,10.6,9.4,18.9,19.9,18.9
	c0.4,0,0.7,0,1.1,0c1.3-0.1,26.8-1.5,56.6-11.1l9.3,91.2c1.2,12-3,23.7-11.5,32.2L314,383.8c-7.8,7.7-7.9,20.4-0.2,28.2
	c7.7,7.8,20.4,7.9,28.2,0.2l97.4-96l0.1-0.1c17.1-17,25.4-40.6,23-64.5l-10.6-104c13.4-7.9,24.7-17.1,33.8-27.7
	c17.3-20.2,26-44.5,26-72.4v-0.8C511.7,20.4,490.3-1,464-1z M471.8,47.6c0,22.3-8.1,40.4-24.5,54.7l-1.9-18.2
	c-1-9.4-8.4-16.9-17.8-17.8l-23.1-2.4c20.4-19.5,54.2-24.3,60.2-25c4,0.4,7.1,3.7,7.1,7.8V47.6z M310.1,291.3
	c-7.8,7.8-20.4,7.8-28.2,0c-7.8-7.8-7.8-20.4,0-28.2c2.1-2.1,2.5-4.6,2.5-6.3c-0.1-2.7-1.3-5.4-3.3-7.4l-12.2-12.2
	c-3.2-3.2-7.2-4.9-11.5-5c-3,0-7.2,0.7-11.1,4.6l-3.2,3.2c-6.5,6.5-6.7,17.2-0.5,23.5l12.9,12.9c10.6,10.6,16.5,24.6,16.7,39.4
	c0.2,15-5.6,29.1-16.3,39.8l-1.5,1.5c-10.8,10.8-24.7,16.2-38.7,16.2c-11.9,0-23.8-3.9-34-11.6l-8.4,8.1c-3.9,3.7-8.9,5.6-13.9,5.6
	c-5.2,0-10.4-2-14.4-6.1c-7.7-7.9-7.4-20.6,0.5-28.2l7.5-7.2c-8.4-9.1-13.2-20.7-13.4-32.9c-0.3-13.3,4.8-25.8,14.3-35.3
	c7.8-7.8,20.4-7.8,28.2,0c7.8,7.8,7.8,20.4,0,28.2c-1.8,1.8-2.6,3.9-2.6,6.2c0.1,2.5,1.2,5.1,3.2,7.1l21,21
	c6.6,6.6,16.2,6.9,22.3,0.8l1.5-1.5c3-3,4.6-7,4.6-11.2c0-4.3-1.8-8.4-5-11.6l-12.9-12.9c-21.9-21.9-21.6-57.7,0.5-79.9l3.2-3.2
	c10.5-10.5,24.4-16.3,39.1-16.3h0.6c10.2,0.1,20,3,28.6,8.2l8.6-8.8c7.7-7.9,20.3-8.1,28.2-0.5c7.9,7.7,8.1,20.3,0.5,28.2l-8.5,8.7
	c5.7,8.1,8.9,17.6,9.2,27.5C324.6,269.1,319.6,281.8,310.1,291.3z"/>
</svg>
