<?xml version="1.0" encoding="utf-8"?>
<!-- Generator: Adobe Illustrator 24.0.3, SVG Export Plug-In . SVG Version: 6.00 Build 0)  -->
<svg version="1.1" id="Outline" xmlns="http://www.w3.org/2000/svg" xmlns:xlink="http://www.w3.org/1999/xlink" x="0px" y="0px"
	 viewBox="0 0 512 512" style="enable-background:new 0 0 512 512;" xml:space="preserve">
<style type="text/css">
	.st0{fill:url(#SVGID_1_);stroke:url(#SVGID_2_);stroke-width:0.25;stroke-miterlimit:10;}
	.st1{fill:url(#SVGID_3_);stroke:url(#SVGID_4_);stroke-width:0.25;stroke-miterlimit:10;}
	.st2{fill:url(#SVGID_5_);stroke:url(#SVGID_6_);stroke-width:0.25;stroke-miterlimit:10;}
</style>
<linearGradient id="SVGID_1_" gradientUnits="userSpaceOnUse" x1="167.9995" y1="352" x2="238.3191" y2="352">
	<stop  offset="0" style="stop-color:#210050"/>
	<stop  offset="1" style="stop-color:#4D0030"/>
</linearGradient>
<linearGradient id="SVGID_2_" gradientUnits="userSpaceOnUse" x1="167.8745" y1="352" x2="238.4441" y2="352">
	<stop  offset="0" style="stop-color:#210051"/>
	<stop  offset="1" style="stop-color:#4E0030"/>
</linearGradient>
<path class="st0" d="M232,359.6V264c0-4.4-3.6-8-8-8c-48.9,0-55.7,83.8-56,87.4c-0.2,3.2,1.5,6.3,4.4,7.8l11.6,5.8v2.7l-6.2,62
	c-1.3,13.2,8.3,25,21.5,26.3c0.8,0.1,1.6,0.1,2.4,0.1h12.6c13.3,0,24-10.7,24-24c0-0.8,0-1.6-0.1-2.4L232,359.6z M184.5,339.3
	c1.4-11.2,3.9-22.3,7.4-33c6.1-18.1,14.2-29.1,24.1-32.9V352h-16c0-3-1.7-5.8-4.4-7.2L184.5,339.3z M220.2,429.4
	c-1.5,1.7-3.7,2.6-5.9,2.6h-12.6c-4.4,0-8-3.6-8-8c0-0.3,0-0.5,0-0.8l5.5-55.2h17.5l5.5,55.2C222.5,425.5,221.8,427.7,220.2,429.4
	L220.2,429.4z"/>
<linearGradient id="SVGID_3_" gradientUnits="userSpaceOnUse" x1="16" y1="256" x2="496" y2="256">
	<stop  offset="0" style="stop-color:#210050"/>
	<stop  offset="1" style="stop-color:#4D0030"/>
</linearGradient>
<linearGradient id="SVGID_4_" gradientUnits="userSpaceOnUse" x1="15.875" y1="256" x2="496.125" y2="256">
	<stop  offset="0" style="stop-color:#210051"/>
	<stop  offset="1" style="stop-color:#4E0030"/>
</linearGradient>
<path class="st1" d="M488,8h-64c-4.4,0-8,3.6-8,8v8H249c-7.2,0-14.3,1.8-20.7,5.3L150,72H56c-13.5,0-24,14.1-24,32
	c0,16.7,9.2,30.1,21.4,31.8L17.3,257.9c0,0.1-0.1,0.2-0.1,0.3c-0.8,3.2-1.2,6.4-1.2,9.7V496c0,4.4,3.6,8,8,8h360c4.4,0,8-3.6,8-8
	V268.6c0-3.8-0.5-7.6-1.6-11.3L357,144c22.5-0.2,41.1-17.6,42.8-40H416v16c0,4.4,3.6,8,8,8h64c4.4,0,8-3.6,8-8V16
	C496,11.6,492.4,8,488,8z M48,104c0-9.8,4.7-16,8-16h228.7l-32,32H56C52.7,120,48,113.8,48,104z M297.2,258.2
	c-0.8,3.2-1.2,6.4-1.2,9.7V488H32V267.9c0-1.9,0.2-3.8,0.7-5.7L70,136h168.2c-9.9,16.8-4.4,38.4,12.4,48.3
	c12.4,7.4,28.1,6.4,39.5-2.5l38.5-29.9l-31.3,106C297.3,258,297.2,258.1,297.2,258.2z M344,467.3l20.7,20.7h-41.4L344,467.3z
	 M375,261.8c0.6,2.2,1,4.5,1,6.8v208.1l-24-24V280c0-4.4-3.6-8-8-8s-8,3.6-8,8v172.7l-24,24V267.9c0-1.9,0.2-3.8,0.7-5.7l31.3-106
	L375,261.8z M416,88h-19.2c-7.1,0-12.8,5.7-12.8,12.8c0,15-12.2,27.2-27.2,27.2h-19.7c-2.5,0-4.9,0.8-6.9,2.4l-49.9,38.8
	c-8.4,6.5-20.5,5-27-3.4c-6-7.7-5.3-18.6,1.6-25.4l54.8-54.8c3.1-3.1,3.1-8.2,0-11.3c-1.5-1.5-3.5-2.3-5.7-2.3H183.4l52.6-28.7
	c4-2.2,8.5-3.3,13-3.3h167V88z M480,112h-48V24h48V112z"/>
<linearGradient id="SVGID_5_" gradientUnits="userSpaceOnUse" x1="80" y1="352" x2="160" y2="352">
	<stop  offset="0" style="stop-color:#210050"/>
	<stop  offset="1" style="stop-color:#4D0030"/>
</linearGradient>
<linearGradient id="SVGID_6_" gradientUnits="userSpaceOnUse" x1="79.875" y1="352" x2="160.125" y2="352">
	<stop  offset="0" style="stop-color:#210051"/>
	<stop  offset="1" style="stop-color:#4E0030"/>
</linearGradient>
<path class="st2" d="M160,264c0-4.4-3.6-8-8-8s-8,3.6-8,8v24h-16v-24c0-4.4-3.6-8-8-8s-8,3.6-8,8v24H96v-24c0-4.4-3.6-8-8-8
	s-8,3.6-8,8v32h0c0,1.2,0.3,2.5,0.8,3.6l15,30l-6.6,92.7c-0.9,13.2,9,24.7,22.2,25.6c0.6,0,1.1,0.1,1.7,0.1h13.6
	c13.3,0,24-10.7,24-24c0-0.6,0-1.1-0.1-1.7l-6.6-92.7l15-30c0.6-1.1,0.8-2.3,0.8-3.6h0V264z M139.1,304l-8,16h-22.1l-8-16H139.1z
	 M132.7,429.5c-1.5,1.6-3.6,2.6-5.9,2.5h-13.6c-4.4,0-8-3.6-8-8c0-0.2,0-0.4,0-0.6l6.2-87.4h17.1l6.2,87.4
	C135,425.6,134.2,427.8,132.7,429.5z"/>
</svg>
