<svg enable-background="new 0 0 512 512" viewBox="0 0 512 512" xmlns="http://www.w3.org/2000/svg"><path d="m448.678 128.219-10.607 10.608c-8.667 8.667-20.191 13.44-32.449 13.44s-23.78-4.773-32.448-13.44c-8.667-8.667-13.44-20.191-13.44-32.448s4.773-23.781 13.44-32.449l10.608-10.608-63.323-63.322-320.459 320.459 63.322 63.322 10.608-10.608c8.667-8.667 20.191-13.44 32.449-13.44s23.78 4.773 32.448 13.44c8.667 8.667 13.44 20.191 13.44 32.448s-4.773 23.781-13.44 32.449l-10.608 10.608 63.322 63.322 320.459-320.459zm-279.068 319.417c8.237-12.343 12.662-26.839 12.662-42.015 0-20.272-7.894-39.33-22.229-53.664-14.334-14.335-33.393-22.229-53.664-22.229-15.176 0-29.672 4.425-42.015 12.662l-21.932-21.931 278.027-278.027 21.931 21.932c-8.237 12.343-12.662 26.839-12.662 42.015 0 20.272 7.894 39.33 22.229 53.664 14.334 14.335 33.393 22.229 53.664 22.229 15.176 0 29.672-4.425 42.015-12.662l21.932 21.931-278.027 278.027z"/><path d="m284.001 197.94h30.004v30.124h-30.004z" transform="matrix(.7071 -.7071 .7071 .7071 -63.0395 273.8137)"/><path d="m241.404 155.325h30.004v30.124h-30.004z" transform="matrix(.7071 -.7071 .7071 .7071 -45.3819 231.2119)"/><path d="m326.607 240.541h30.004v30.124h-30.004z" transform="matrix(.7071 -.7071 .7071 .7071 -80.684 316.4184)"/></svg>