<?xml version="1.0" encoding="iso-8859-1"?>
<!-- Generator: Adobe Illustrator 19.0.0, SVG Export Plug-In . SVG Version: 6.00 Build 0)  -->
<svg version="1.1" id="Capa_1" xmlns="http://www.w3.org/2000/svg" xmlns:xlink="http://www.w3.org/1999/xlink" x="0px" y="0px"
	 viewBox="0 0 512 512" style="enable-background:new 0 0 512 512;" xml:space="preserve">
<g>
	<g>
		<path d="M300.321,147.234V15.128C300.321,6.773,293.547,0,285.192,0h-58.384c-8.355,0-15.128,6.773-15.128,15.128v132.106
			c-34.292,15.966-56.653,50.448-56.653,88.955v260.683c0,8.355,6.773,15.128,15.128,15.128h171.689
			c8.355,0,15.128-6.773,15.128-15.128V236.189C356.974,197.682,334.612,163.201,300.321,147.234z M241.937,30.256h28.127v23.026
			h-28.127V30.256z M185.285,236.189c0-29.226,18.619-55.098,46.33-64.381c6.166-2.065,10.322-7.841,10.322-14.345V83.539h28.127
			v73.924c0,6.503,4.156,12.279,10.322,14.345c27.712,9.284,46.331,35.156,46.331,64.381v20.819H185.285V236.189z M326.717,481.744
			H185.285v-67.402h141.432V481.744z M326.717,384.085H185.285v-96.82h141.432V384.085z"/>
	</g>
</g>
<g>
</g>
<g>
</g>
<g>
</g>
<g>
</g>
<g>
</g>
<g>
</g>
<g>
</g>
<g>
</g>
<g>
</g>
<g>
</g>
<g>
</g>
<g>
</g>
<g>
</g>
<g>
</g>
<g>
</g>
</svg>
