<svg enable-background="new 0 0 26 26" viewBox="0 0 26 26" xmlns="http://www.w3.org/2000/svg"><g fill="#030104"><path d="m8.083 11.222-1.664 3.778c-.041.094-.144.154-.257.154h-.852c-.113 0-.216-.061-.256-.154l-.79-1.803c-.077-.178-.147-.348-.213-.517-.073.186-.148.359-.223.525l-.833 1.8c-.042.091-.144.149-.255.149h-.852c-.117 0-.219-.063-.259-.158l-1.557-3.779c-.03-.074-.018-.156.034-.221s.135-.103.225-.103h.959c.121 0 .227.069.263.169l.684 1.92c.057.162.11.315.159.461.06-.146.125-.3.194-.463l.842-1.932c.041-.093.143-.155.256-.155h.792c.115 0 .217.063.258.157l.798 1.89c.072.17.136.329.195.479.049-.142.106-.296.171-.465l.737-1.898c.038-.098.143-.164.26-.164h.926c.091 0 .175.039.227.104.053.068.063.151.031.226zm8.922 0-1.664 3.778c-.041.094-.144.154-.256.154h-.854c-.113 0-.215-.061-.256-.154l-.789-1.803c-.078-.178-.148-.348-.214-.517-.073.186-.148.359-.223.525l-.833 1.8c-.042.091-.143.149-.255.149h-.853c-.116 0-.219-.063-.259-.158l-1.557-3.779c-.03-.074-.018-.156.034-.221.052-.064.136-.103.225-.103h.959c.121 0 .227.069.263.169l.683 1.92c.057.162.11.315.161.461.059-.146.123-.3.192-.463l.843-1.932c.04-.093.142-.155.256-.155h.792c.115 0 .218.063.258.157l.799 1.89c.071.17.135.329.193.479.051-.142.106-.296.172-.465l.737-1.898c.038-.098.144-.164.261-.164h.926c.092 0 .177.039.227.104.053.068.065.151.032.226zm8.921 0-1.663 3.778c-.042.094-.144.154-.257.154h-.853c-.113 0-.216-.061-.256-.154l-.789-1.803c-.078-.178-.148-.348-.214-.517-.073.186-.149.359-.224.525l-.833 1.8c-.042.091-.144.149-.255.149h-.852c-.117 0-.22-.063-.26-.158l-1.557-3.779c-.029-.074-.019-.156.033-.221s.136-.103.226-.103h.96c.121 0 .227.069.262.169l.684 1.92c.057.162.11.315.16.461.059-.146.123-.3.192-.463l.843-1.932c.041-.093.143-.155.257-.155h.791c.115 0 .218.063.258.157l.798 1.89c.072.17.137.329.196.479.049-.142.106-.296.171-.465l.738-1.898c.037-.098.142-.164.26-.164h.926c.092 0 .176.039.227.104.051.068.063.151.031.226z"/><path d="m2.71 9c.283-.718.637-1.401 1.057-2.037.062.012.12.037.185.037h1.88c-.199.634-.355 1.309-.49 2h2.055c.155-.699.335-1.376.562-2h9.986c.227.624.407 1.301.562 2h2.055c-.135-.691-.291-1.366-.49-2h1.88c.065 0 .123-.025.186-.037.418.636.773 1.319 1.056 2.037h2.121c-1.691-5.216-6.591-9-12.363-9s-10.672 3.784-12.364 9zm17.768-4h-1.188c-.258-.543-.542-1.05-.851-1.519.74.428 1.422.938 2.039 1.519zm-7.526-3c1.551 0 2.983 1.154 4.062 3h-8.124c1.079-1.846 2.511-3 4.062-3zm-5.489 1.481c-.308.469-.592.976-.85 1.519h-1.187c.617-.581 1.299-1.091 2.037-1.519z"/><path d="m23.194 17c-.283.719-.638 1.4-1.057 2.037-.062-.012-.12-.037-.185-.037h-1.881c.199-.634.355-1.309.49-2h-2.055c-.154.699-.335 1.377-.562 2h-9.985c-.227-.623-.407-1.301-.562-2h-2.054c.135.691.291 1.366.49 2h-1.881c-.065 0-.123.025-.185.037-.419-.637-.774-1.318-1.057-2.037h-2.122c1.692 5.216 6.592 9 12.364 9s10.672-3.784 12.363-9zm-17.768 4h1.188c.258.543.542 1.051.85 1.519-.739-.428-1.421-.938-2.038-1.519zm7.526 3c-1.551 0-2.983-1.154-4.062-3h8.123c-1.078 1.846-2.51 3-4.061 3zm5.488-1.481c.309-.468.593-.976.851-1.519h1.188c-.618.581-1.3 1.091-2.039 1.519z"/></g></svg>