<?xml version="1.0" encoding="utf-8"?>
<!-- Generator: Adobe Illustrator 24.0.3, SVG Export Plug-In . SVG Version: 6.00 Build 0)  -->
<svg version="1.1" id="Calque_1" xmlns="http://www.w3.org/2000/svg" xmlns:xlink="http://www.w3.org/1999/xlink" x="0px" y="0px"
	 viewBox="0 0 512 512" style="enable-background:new 0 0 512 512;" xml:space="preserve">
<style type="text/css">
	.st0{fill:none;}
	.st1{fill:#FFFFFF;stroke:url(#SVGID_1_);stroke-width:3;stroke-miterlimit:10;}
	.st2{fill:#FFFFFF;stroke:url(#SVGID_3_);stroke-width:20;stroke-miterlimit:10;}
	.st3{fill:#FFFFFF;stroke:url(#SVGID_9_);stroke-width:20;stroke-miterlimit:10;}
	.st4{clip-path:url(#SVGID_13_);}
	.st5{fill:#FFFFFF;stroke:url(#SVGID_16_);stroke-width:20;stroke-miterlimit:10;}
	.st6{fill:#FFFFFF;stroke:url(#SVGID_18_);stroke-width:20;stroke-miterlimit:10;}
	.st7{clip-path:url(#SVGID_23_);fill:#FFFFFF;stroke:url(#SVGID_24_);stroke-width:20;stroke-miterlimit:10;}
	.st8{fill:#FFFFFF;}
	.st9{clip-path:url(#SVGID_29_);}
	.st10{clip-path:url(#SVGID_31_);fill:#FFFFFF;}
	.st11{fill:#FFFFFF;stroke:url(#SVGID_32_);stroke-width:20;stroke-miterlimit:10;}
	.st12{fill:#FFFFFF;stroke:url(#SVGID_33_);stroke-width:20;stroke-miterlimit:10;}
	.st13{clip-path:url(#SVGID_34_);}
	.st14{fill:#FFFFFF;stroke:url(#SVGID_35_);stroke-width:20;stroke-miterlimit:10;}
	.st15{fill:#FFFFFF;stroke:url(#SVGID_36_);stroke-width:20;stroke-miterlimit:10;}
	.st16{clip-path:url(#SVGID_37_);fill:#FFFFFF;stroke:url(#SVGID_38_);stroke-width:20;stroke-miterlimit:10;}
</style>
<rect x="1.5" y="217.5" class="st0" width="509.3" height="80.2"/>
<g>
	<g>
		<g>
			<g>
				<g>
					<g>
						<linearGradient id="SVGID_1_" gradientUnits="userSpaceOnUse" x1="-8.201005e-02" y1="257.6815" x2="512.2204" y2="257.6815">
							<stop  offset="0" style="stop-color:#20004F"/>
							<stop  offset="1" style="stop-color:#45002E"/>
						</linearGradient>
						<path id="SVGID_6_" class="st1" d="M159.4,223.7l-32.7,71.1c-0.8,1.8-2.8,2.9-5.1,2.9h-16.8c-2.2,0-4.2-1.1-5-2.9l-15.5-33.9
							c-1.5-3.3-2.9-6.5-4.2-9.7c-1.4,3.5-2.9,6.8-4.4,9.9L59.3,295c-0.8,1.7-2.8,2.8-5,2.8H37.5c-2.3,0-4.3-1.2-5.1-3L1.8,223.6
							c-0.6-1.4-0.4-2.9,0.7-4.2c1-1.2,2.7-1.9,4.4-1.9h18.9c2.4,0,4.5,1.3,5.2,3.2l13.5,36.1c1.1,3,2.2,5.9,3.1,8.7
							c1.2-2.7,2.5-5.6,3.8-8.7l16.5-36.3c0.8-1.7,2.8-2.9,5-2.9h15.6c2.3,0,4.3,1.2,5.1,3l15.7,35.6c1.4,3.2,2.7,6.2,3.8,9
							c1-2.7,2.1-5.6,3.4-8.7l14.5-35.7c0.7-1.8,2.8-3.1,5.1-3.1h18.2c1.8,0,3.4,0.7,4.5,2C159.8,220.8,160,222.3,159.4,223.7
							 M334.9,223.7l-32.7,71.1c-0.8,1.8-2.8,2.9-5,2.9h-16.8c-2.2,0-4.2-1.1-5.1-2.9l-15.5-33.9c-1.5-3.3-2.9-6.5-4.2-9.7
							c-1.4,3.5-2.9,6.8-4.4,9.9L234.8,295c-0.8,1.7-2.8,2.8-5,2.8H213c-2.3,0-4.3-1.2-5.1-3l-30.6-71.1c-0.6-1.4-0.4-2.9,0.7-4.2
							c1-1.2,2.7-1.9,4.4-1.9h18.9c2.4,0,4.5,1.3,5.2,3.2l13.4,36.1c1.1,3,2.2,5.9,3.2,8.7c1.2-2.7,2.4-5.6,3.8-8.7l16.6-36.4
							c0.8-1.7,2.8-2.9,5-2.9h15.6c2.3,0,4.3,1.2,5.1,3l15.7,35.6c1.4,3.2,2.7,6.2,3.8,9c1-2.7,2.1-5.6,3.4-8.7l14.5-35.7
							c0.7-1.8,2.8-3.1,5.2-3.1H330c1.8,0,3.5,0.7,4.5,2C335.3,220.8,335.6,222.3,334.9,223.7 M510.4,223.7l-32.7,71.1
							c-0.8,1.8-2.8,2.9-5.1,2.9h-16.7c-2.2,0-4.3-1.1-5-2.9l-15.5-33.9c-1.6-3.3-2.9-6.5-4.2-9.7c-1.4,3.5-2.9,6.8-4.4,9.9
							L410.4,295c-0.8,1.7-2.8,2.8-5,2.8h-16.7c-2.3,0-4.3-1.2-5.1-3L353,223.7c-0.6-1.4-0.4-2.9,0.7-4.2c1-1.2,2.7-1.9,4.4-1.9H377
							c2.4,0,4.5,1.3,5.2,3.2l13.5,36.1c1.1,3,2.2,5.9,3.2,8.7c1.1-2.7,2.4-5.6,3.8-8.7l16.6-36.4c0.8-1.7,2.8-2.9,5-2.9h15.6
							c2.2,0,4.3,1.2,5.1,3l15.7,35.6c1.4,3.2,2.7,6.2,3.9,9c1-2.7,2.1-5.6,3.4-8.7l14.5-35.7c0.7-1.8,2.8-3.1,5.1-3.1h18.2
							c1.8,0,3.5,0.7,4.5,2C510.8,220.8,511,222.3,510.4,223.7"/>
					</g>
				</g>
			</g>
		</g>
	</g>
</g>
<g>
	<g>
		<g>
			<linearGradient id="SVGID_3_" gradientUnits="userSpaceOnUse" x1="0.731" y1="89.55" x2="511.869" y2="89.55">
				<stop  offset="0" style="stop-color:#20004F"/>
				<stop  offset="1" style="stop-color:#45002E"/>
			</linearGradient>
			<path id="SVGID_12_" class="st2" d="M55.9,179.4c5.5-14.3,12.5-28,20.7-40.7c1.2,0.2,2.3,0.7,3.6,0.7H117
				c-3.9,12.7-6.9,26.1-9.6,39.9h40.2c3-14,6.6-27.5,11-39.9H354c4.4,12.5,8,26,11,39.9h40.2c-2.6-13.8-5.7-27.3-9.6-39.9h36.8
				c1.3,0,2.4-0.5,3.6-0.7c8.2,12.7,15.1,26.3,20.7,40.7h41.5C465.1,75.2,369.3-0.3,256.3-0.3S47.5,75.2,14.4,179.4H55.9z
				 M403.6,99.5h-23.2c-5-10.8-10.6-21-16.6-30.3C378.2,77.7,391.5,87.9,403.6,99.5z M256.3,39.6c30.3,0,58.4,23,79.5,59.9h-159
				C198,62.6,226,39.6,256.3,39.6z M148.9,69.2c-6,9.4-11.6,19.5-16.6,30.3h-23.2C121.1,87.9,134.5,77.7,148.9,69.2z"/>
		</g>
		<g>
			<g>
				<linearGradient id="SVGID_9_" gradientUnits="userSpaceOnUse" x1="0.731" y1="89.55" x2="511.869" y2="89.55">
					<stop  offset="0" style="stop-color:#20004F"/>
					<stop  offset="1" style="stop-color:#45002E"/>
				</linearGradient>
				<path id="SVGID_11_" class="st3" d="M55.9,179.4c5.5-14.3,12.5-28,20.7-40.7c1.2,0.2,2.3,0.7,3.6,0.7H117
					c-3.9,12.7-6.9,26.1-9.6,39.9h40.2c3-14,6.6-27.5,11-39.9H354c4.4,12.5,8,26,11,39.9h40.2c-2.6-13.8-5.7-27.3-9.6-39.9h36.8
					c1.3,0,2.4-0.5,3.6-0.7c8.2,12.7,15.1,26.3,20.7,40.7h41.5C465.1,75.2,369.3-0.3,256.3-0.3S47.5,75.2,14.4,179.4H55.9z
					 M403.6,99.5h-23.2c-5-10.8-10.6-21-16.6-30.3C378.2,77.7,391.5,87.9,403.6,99.5z M256.3,39.6c30.3,0,58.4,23,79.5,59.9h-159
					C198,62.6,226,39.6,256.3,39.6z M148.9,69.2c-6,9.4-11.6,19.5-16.6,30.3h-23.2C121.1,87.9,134.5,77.7,148.9,69.2z"/>
			</g>
			<g>
				<defs>
					<path id="SVGID_10_" d="M55.9,179.4c5.5-14.3,12.5-28,20.7-40.7c1.2,0.2,2.3,0.7,3.6,0.7H117c-3.9,12.7-6.9,26.1-9.6,39.9h40.2
						c3-14,6.6-27.5,11-39.9H354c4.4,12.5,8,26,11,39.9h40.2c-2.6-13.8-5.7-27.3-9.6-39.9h36.8c1.3,0,2.4-0.5,3.6-0.7
						c8.2,12.7,15.1,26.3,20.7,40.7h41.5C465.1,75.2,369.3-0.3,256.3-0.3S47.5,75.2,14.4,179.4H55.9z M403.6,99.5h-23.2
						c-5-10.8-10.6-21-16.6-30.3C378.2,77.7,391.5,87.9,403.6,99.5z M256.3,39.6c30.3,0,58.4,23,79.5,59.9h-159
						C198,62.6,226,39.6,256.3,39.6z M148.9,69.2c-6,9.4-11.6,19.5-16.6,30.3h-23.2C121.1,87.9,134.5,77.7,148.9,69.2z"/>
				</defs>
				<use xlink:href="#SVGID_10_"  style="overflow:visible;fill:#FFFFFF;"/>
				<clipPath id="SVGID_13_">
					<use xlink:href="#SVGID_10_"  style="overflow:visible;"/>
				</clipPath>
				<g class="st4">
					<g>
						<g>
							
								<linearGradient id="SVGID_16_" gradientUnits="userSpaceOnUse" x1="-7585.2998" y1="-2419.6504" x2="18977.8008" y2="-2419.6504">
								<stop  offset="0" style="stop-color:#20004F"/>
								<stop  offset="1" style="stop-color:#45002E"/>
							</linearGradient>
							<rect id="SVGID_15_" x="-7575.3" y="-16866.3" class="st5" width="26543.1" height="28893.3"/>
						</g>
						<g>
							<g>
								
									<linearGradient id="SVGID_18_" gradientUnits="userSpaceOnUse" x1="-7585.2998" y1="-2419.6504" x2="18977.8008" y2="-2419.6504">
									<stop  offset="0" style="stop-color:#20004F"/>
									<stop  offset="1" style="stop-color:#45002E"/>
								</linearGradient>
								<rect id="SVGID_14_" x="-7575.3" y="-16866.3" class="st6" width="26543.1" height="28893.3"/>
							</g>
							<g>
								<defs>
									<rect id="SVGID_21_" x="-7575.3" y="-16866.3" width="26543.1" height="28893.3"/>
								</defs>
								<use xlink:href="#SVGID_21_"  style="overflow:visible;fill:#FFFFFF;"/>
								<clipPath id="SVGID_23_">
									<use xlink:href="#SVGID_21_"  style="overflow:visible;"/>
								</clipPath>
								<linearGradient id="SVGID_24_" gradientUnits="userSpaceOnUse" x1="-64.7" y1="89.5" x2="577.4" y2="89.5">
									<stop  offset="0" style="stop-color:#20004F"/>
									<stop  offset="1" style="stop-color:#45002E"/>
								</linearGradient>
								<rect x="-54.7" y="-69.5" class="st7" width="622.1" height="318"/>
								
									<linearGradient id="SVGID_25_" gradientUnits="userSpaceOnUse" x1="-7585.2998" y1="-2419.6504" x2="18977.8008" y2="-2419.6504">
									<stop  offset="0" style="stop-color:#20004F"/>
									<stop  offset="1" style="stop-color:#45002E"/>
								</linearGradient>
								
									<use xlink:href="#SVGID_21_"  style="overflow:visible;fill:none;stroke:url(#SVGID_25_);stroke-width:20;stroke-miterlimit:10;"/>
							</g>
						</g>
					</g>
				</g>
				<linearGradient id="SVGID_27_" gradientUnits="userSpaceOnUse" x1="0.731" y1="89.55" x2="511.869" y2="89.55">
					<stop  offset="0" style="stop-color:#20004F"/>
					<stop  offset="1" style="stop-color:#45002E"/>
				</linearGradient>
				
					<use xlink:href="#SVGID_10_"  style="overflow:visible;fill:none;stroke:url(#SVGID_27_);stroke-width:20;stroke-miterlimit:10;"/>
			</g>
		</g>
	</g>
</g>
<g>
	<g>
		<g>
			<path id="SVGID_19_" class="st8" d="M456.7,331.5c-5.5,14.4-12.5,28-20.7,40.7c-1.2-0.2-2.3-0.8-3.6-0.8h-36.8
				c3.9-12.6,6.9-26.1,9.6-39.9H365c-3,14-6.6,27.5-11,39.9H158.6c-4.4-12.4-8-26-11-39.9h-40.2c2.7,13.8,5.7,27.3,9.6,39.9H80.2
				c-1.3,0-2.4,0.5-3.6,0.8c-8.2-12.7-15.1-26.3-20.7-40.7H14.4c33.1,104.2,129,179.7,241.9,179.7s208.8-75.6,241.9-179.7H456.7z
				 M109.1,411.3h23.2c5.1,10.8,10.6,21,16.6,30.3C134.5,433.1,121.2,423,109.1,411.3z M256.3,471.2c-30.4,0-58.4-23-79.5-59.9
				h158.9C314.7,448.2,286.7,471.2,256.3,471.2z M363.7,441.7c6-9.3,11.6-19.5,16.7-30.3h23.2C391.5,423,378.2,433.1,363.7,441.7z"
				/>
		</g>
		<g>
			<g>
				<path id="SVGID_17_" class="st8" d="M456.7,331.5c-5.5,14.4-12.5,28-20.7,40.7c-1.2-0.2-2.3-0.8-3.6-0.8h-36.8
					c3.9-12.6,6.9-26.1,9.6-39.9H365c-3,14-6.6,27.5-11,39.9H158.6c-4.4-12.4-8-26-11-39.9h-40.2c2.7,13.8,5.7,27.3,9.6,39.9H80.2
					c-1.3,0-2.4,0.5-3.6,0.8c-8.2-12.7-15.1-26.3-20.7-40.7H14.4c33.1,104.2,129,179.7,241.9,179.7s208.8-75.6,241.9-179.7H456.7z
					 M109.1,411.3h23.2c5.1,10.8,10.6,21,16.6,30.3C134.5,433.1,121.2,423,109.1,411.3z M256.3,471.2c-30.4,0-58.4-23-79.5-59.9
					h158.9C314.7,448.2,286.7,471.2,256.3,471.2z M363.7,441.7c6-9.3,11.6-19.5,16.7-30.3h23.2C391.5,423,378.2,433.1,363.7,441.7z"
					/>
			</g>
			<g>
				<defs>
					<path id="SVGID_28_" d="M456.7,331.5c-5.5,14.4-12.5,28-20.7,40.7c-1.2-0.2-2.3-0.8-3.6-0.8h-36.8c3.9-12.6,6.9-26.1,9.6-39.9
						H365c-3,14-6.6,27.5-11,39.9H158.6c-4.4-12.4-8-26-11-39.9h-40.2c2.7,13.8,5.7,27.3,9.6,39.9H80.2c-1.3,0-2.4,0.5-3.6,0.8
						c-8.2-12.7-15.1-26.3-20.7-40.7H14.4c33.1,104.2,129,179.7,241.9,179.7s208.8-75.6,241.9-179.7H456.7z M109.1,411.3h23.2
						c5.1,10.8,10.6,21,16.6,30.3C134.5,433.1,121.2,423,109.1,411.3z M256.3,471.2c-30.4,0-58.4-23-79.5-59.9h158.9
						C314.7,448.2,286.7,471.2,256.3,471.2z M363.7,441.7c6-9.3,11.6-19.5,16.7-30.3h23.2C391.5,423,378.2,433.1,363.7,441.7z"/>
				</defs>
				<clipPath id="SVGID_29_">
					<use xlink:href="#SVGID_28_"  style="overflow:visible;"/>
				</clipPath>
				<g class="st9">
					<g>
						<g>
							<rect id="SVGID_22_" x="-7575.3" y="-16866.3" class="st8" width="26543.1" height="28893.3"/>
						</g>
						<g>
							<g>
								<rect id="SVGID_20_" x="-7575.3" y="-16866.3" class="st8" width="26543.1" height="28893.3"/>
							</g>
							<g>
								<defs>
									<rect id="SVGID_30_" x="-7575.3" y="-16866.3" width="26543.1" height="28893.3"/>
								</defs>
								<clipPath id="SVGID_31_">
									<use xlink:href="#SVGID_30_"  style="overflow:visible;"/>
								</clipPath>
								<rect x="-54.7" y="262.3" class="st10" width="622.1" height="318"/>
							</g>
						</g>
					</g>
				</g>
			</g>
		</g>
	</g>
</g>
<g>
	<g>
		<g>
			
				<linearGradient id="SVGID_32_" gradientUnits="userSpaceOnUse" x1="0.731" y1="-242.25" x2="511.869" y2="-242.25" gradientTransform="matrix(-1 0 0 -1 512.6 179.1)">
				<stop  offset="0" style="stop-color:#20004F"/>
				<stop  offset="1" style="stop-color:#45002E"/>
			</linearGradient>
			<path id="SVGID_8_" class="st11" d="M456.7,331.5c-5.5,14.3-12.5,28-20.7,40.7c-1.2-0.2-2.3-0.7-3.6-0.7h-36.8
				c3.9-12.7,6.9-26.1,9.6-39.9H365c-3,14-6.6,27.5-11,39.9H158.6c-4.4-12.5-8-26-11-39.9h-40.2c2.6,13.8,5.7,27.3,9.6,39.9H80.2
				c-1.3,0-2.4,0.5-3.6,0.7c-8.2-12.7-15.1-26.3-20.7-40.7H14.4c33.1,104.2,128.9,179.7,241.9,179.7s208.8-75.5,241.9-179.7H456.7z
				 M109,411.4h23.2c5,10.8,10.6,21,16.6,30.3C134.4,433.2,121.1,423,109,411.4z M256.3,471.3c-30.3,0-58.4-23-79.5-59.9h159
				C314.6,448.3,286.6,471.3,256.3,471.3z M363.7,441.7c6-9.4,11.6-19.5,16.6-30.3h23.2C391.5,423,378.1,433.2,363.7,441.7z"/>
		</g>
		<g>
			<g>
				
					<linearGradient id="SVGID_33_" gradientUnits="userSpaceOnUse" x1="0.731" y1="-242.25" x2="511.869" y2="-242.25" gradientTransform="matrix(-1 0 0 -1 512.6 179.1)">
					<stop  offset="0" style="stop-color:#20004F"/>
					<stop  offset="1" style="stop-color:#45002E"/>
				</linearGradient>
				<path id="SVGID_7_" class="st12" d="M456.7,331.5c-5.5,14.3-12.5,28-20.7,40.7c-1.2-0.2-2.3-0.7-3.6-0.7h-36.8
					c3.9-12.7,6.9-26.1,9.6-39.9H365c-3,14-6.6,27.5-11,39.9H158.6c-4.4-12.5-8-26-11-39.9h-40.2c2.6,13.8,5.7,27.3,9.6,39.9H80.2
					c-1.3,0-2.4,0.5-3.6,0.7c-8.2-12.7-15.1-26.3-20.7-40.7H14.4c33.1,104.2,128.9,179.7,241.9,179.7s208.8-75.5,241.9-179.7H456.7z
					 M109,411.4h23.2c5,10.8,10.6,21,16.6,30.3C134.4,433.2,121.1,423,109,411.4z M256.3,471.3c-30.3,0-58.4-23-79.5-59.9h159
					C314.6,448.3,286.6,471.3,256.3,471.3z M363.7,441.7c6-9.4,11.6-19.5,16.6-30.3h23.2C391.5,423,378.1,433.2,363.7,441.7z"/>
			</g>
			<g>
				<defs>
					<path id="SVGID_5_" d="M456.7,331.5c-5.5,14.3-12.5,28-20.7,40.7c-1.2-0.2-2.3-0.7-3.6-0.7h-36.8c3.9-12.7,6.9-26.1,9.6-39.9
						H365c-3,14-6.6,27.5-11,39.9H158.6c-4.4-12.5-8-26-11-39.9h-40.2c2.6,13.8,5.7,27.3,9.6,39.9H80.2c-1.3,0-2.4,0.5-3.6,0.7
						c-8.2-12.7-15.1-26.3-20.7-40.7H14.4c33.1,104.2,128.9,179.7,241.9,179.7s208.8-75.5,241.9-179.7H456.7z M109,411.4h23.2
						c5,10.8,10.6,21,16.6,30.3C134.4,433.2,121.1,423,109,411.4z M256.3,471.3c-30.3,0-58.4-23-79.5-59.9h159
						C314.6,448.3,286.6,471.3,256.3,471.3z M363.7,441.7c6-9.4,11.6-19.5,16.6-30.3h23.2C391.5,423,378.1,433.2,363.7,441.7z"/>
				</defs>
				<use xlink:href="#SVGID_5_"  style="overflow:visible;fill:#FFFFFF;"/>
				<clipPath id="SVGID_34_">
					<use xlink:href="#SVGID_5_"  style="overflow:visible;"/>
				</clipPath>
				<g class="st13">
					<g>
						<g>
							
								<linearGradient id="SVGID_35_" gradientUnits="userSpaceOnUse" x1="-7585.2998" y1="-2751.4504" x2="18977.8008" y2="-2751.4504" gradientTransform="matrix(-1 0 0 -1 512.6 179.1)">
								<stop  offset="0" style="stop-color:#20004F"/>
								<stop  offset="1" style="stop-color:#45002E"/>
							</linearGradient>
							<rect id="SVGID_4_" x="-18455.2" y="-11516.1" class="st14" width="26543.1" height="28893.3"/>
						</g>
						<g>
							<g>
								
									<linearGradient id="SVGID_36_" gradientUnits="userSpaceOnUse" x1="-7585.2998" y1="-2751.4504" x2="18977.8008" y2="-2751.4504" gradientTransform="matrix(-1 0 0 -1 512.6 179.1)">
									<stop  offset="0" style="stop-color:#20004F"/>
									<stop  offset="1" style="stop-color:#45002E"/>
								</linearGradient>
								<rect id="SVGID_2_" x="-18455.2" y="-11516.1" class="st15" width="26543.1" height="28893.3"/>
							</g>
							<g>
								<defs>
									<rect id="SVGID_26_" x="-18455.2" y="-11516.1" width="26543.1" height="28893.3"/>
								</defs>
								<use xlink:href="#SVGID_26_"  style="overflow:visible;fill:#FFFFFF;"/>
								<clipPath id="SVGID_37_">
									<use xlink:href="#SVGID_26_"  style="overflow:visible;"/>
								</clipPath>
								
									<linearGradient id="SVGID_38_" gradientUnits="userSpaceOnUse" x1="-64.7" y1="-242.3" x2="577.4" y2="-242.3" gradientTransform="matrix(-1 0 0 -1 512.6 179.1)">
									<stop  offset="0" style="stop-color:#20004F"/>
									<stop  offset="1" style="stop-color:#45002E"/>
								</linearGradient>
								<rect x="-54.8" y="262.4" class="st16" width="622.1" height="318"/>
								
									<linearGradient id="SVGID_39_" gradientUnits="userSpaceOnUse" x1="-7585.2998" y1="-2751.4504" x2="18977.8008" y2="-2751.4504" gradientTransform="matrix(-1 0 0 -1 512.6 179.1)">
									<stop  offset="0" style="stop-color:#20004F"/>
									<stop  offset="1" style="stop-color:#45002E"/>
								</linearGradient>
								
									<use xlink:href="#SVGID_26_"  style="overflow:visible;fill:none;stroke:url(#SVGID_39_);stroke-width:20;stroke-miterlimit:10;"/>
							</g>
						</g>
					</g>
				</g>
				
					<linearGradient id="SVGID_40_" gradientUnits="userSpaceOnUse" x1="0.731" y1="-242.25" x2="511.869" y2="-242.25" gradientTransform="matrix(-1 0 0 -1 512.6 179.1)">
					<stop  offset="0" style="stop-color:#20004F"/>
					<stop  offset="1" style="stop-color:#45002E"/>
				</linearGradient>
				
					<use xlink:href="#SVGID_5_"  style="overflow:visible;fill:none;stroke:url(#SVGID_40_);stroke-width:20;stroke-miterlimit:10;"/>
			</g>
		</g>
	</g>
</g>
</svg>
