<?xml version="1.0" encoding="utf-8"?>
<!-- Generator: Adobe Illustrator 24.0.3, SVG Export Plug-In . SVG Version: 6.00 Build 0)  -->
<svg version="1.1" id="Calque_1" xmlns="http://www.w3.org/2000/svg" xmlns:xlink="http://www.w3.org/1999/xlink" x="0px" y="0px"
	 viewBox="0 0 512 512" style="enable-background:new 0 0 512 512;" xml:space="preserve">
<style type="text/css">
	.st0{clip-path:url(#SVGID_2_);enable-background:new    ;}
	.st1{clip-path:url(#SVGID_4_);}
	.st2{fill:url(#SVGID_6_);}
	.st3{clip-path:url(#SVGID_9_);}
	.st4{fill:url(#SVGID_10_);}
	.st5{clip-path:url(#SVGID_13_);fill:url(#SVGID_14_);}
	.st6{fill:url(#SVGID_16_);}
	.st7{clip-path:url(#SVGID_18_);}
	.st8{fill:url(#SVGID_20_);}
	.st9{clip-path:url(#SVGID_23_);fill:url(#SVGID_24_);}
	.st10{fill:url(#SVGID_25_);}
	.st11{clip-path:url(#SVGID_27_);}
	.st12{fill:url(#SVGID_28_);}
	.st13{clip-path:url(#SVGID_30_);fill:url(#SVGID_31_);}
</style>
<g>
	<g>
		<g>
			<defs>
				<rect id="SVGID_1_" x="0.6" y="221.5" width="509.3" height="80.2"/>
			</defs>
			<clipPath id="SVGID_2_">
				<use xlink:href="#SVGID_1_"  style="overflow:visible;"/>
			</clipPath>
			<g class="st0">
				<g>
					<g>
						<g>
							<defs>
								<rect id="SVGID_3_" x="-13.3" y="220.9" width="525.3" height="82.9"/>
							</defs>
							<clipPath id="SVGID_4_">
								<use xlink:href="#SVGID_3_"  style="overflow:visible;"/>
							</clipPath>
							<g class="st1">
								<g>
									<g>
										
											<linearGradient id="SVGID_6_" gradientUnits="userSpaceOnUse" x1="0.5676" y1="252.35" x2="509.87" y2="252.35" gradientTransform="matrix(1 0 0 -1 0 514)">
											<stop  offset="0" style="stop-color:#210050"/>
											<stop  offset="1" style="stop-color:#4D0030"/>
										</linearGradient>
										<path id="SVGID_5_" class="st2" d="M158.5,227.7l-32.7,71.1c-0.8,1.8-2.8,2.9-5.1,2.9h-16.8c-2.2,0-4.2-1.1-5-2.9
											l-15.5-33.9c-1.5-3.3-2.9-6.5-4.2-9.7c-1.4,3.5-2.9,6.8-4.4,9.9L58.4,299c-0.8,1.7-2.8,2.8-5,2.8H36.6
											c-2.3,0-4.3-1.2-5.1-3L0.9,227.6c-0.6-1.4-0.4-2.9,0.7-4.2c1-1.2,2.7-1.9,4.4-1.9h18.9c2.4,0,4.5,1.3,5.2,3.2l13.5,36.1
											c1.1,3,2.2,5.9,3.1,8.7c1.2-2.7,2.5-5.6,3.8-8.7L67,224.5c0.8-1.7,2.8-2.9,5-2.9h15.6c2.3,0,4.3,1.2,5.1,3l15.7,35.6
											c1.4,3.2,2.7,6.2,3.8,9c1-2.7,2.1-5.6,3.4-8.7l14.5-35.7c0.7-1.8,2.8-3.1,5.1-3.1h18.2c1.8,0,3.4,0.7,4.5,2
											C158.9,224.8,159.1,226.3,158.5,227.7 M334,227.7l-32.7,71.1c-0.8,1.8-2.8,2.9-5,2.9h-16.8c-2.2,0-4.2-1.1-5.1-2.9
											l-15.5-33.9c-1.5-3.3-2.9-6.5-4.2-9.7c-1.4,3.5-2.9,6.8-4.4,9.9L233.9,299c-0.8,1.7-2.8,2.8-5,2.8h-16.8
											c-2.3,0-4.3-1.2-5.1-3l-30.6-71.1c-0.6-1.4-0.4-2.9,0.7-4.2c1-1.2,2.7-1.9,4.4-1.9h18.9c2.4,0,4.5,1.3,5.2,3.2l13.4,36.1
											c1.1,3,2.2,5.9,3.2,8.7c1.2-2.7,2.4-5.6,3.8-8.7l16.6-36.4c0.8-1.7,2.8-2.9,5-2.9h15.6c2.3,0,4.3,1.2,5.1,3l15.7,35.6
											c1.4,3.2,2.7,6.2,3.8,9c1-2.7,2.1-5.6,3.4-8.7l14.5-35.7c0.7-1.8,2.8-3.1,5.2-3.1h18.2c1.8,0,3.5,0.7,4.5,2
											C334.4,224.8,334.7,226.3,334,227.7 M509.5,227.7l-32.7,71.1c-0.8,1.8-2.8,2.9-5.1,2.9H455c-2.2,0-4.3-1.1-5-2.9
											l-15.5-33.9c-1.6-3.3-2.9-6.5-4.2-9.7c-1.4,3.5-2.9,6.8-4.4,9.9L409.5,299c-0.8,1.7-2.8,2.8-5,2.8h-16.7
											c-2.3,0-4.3-1.2-5.1-3l-30.6-71.1c-0.6-1.4-0.4-2.9,0.7-4.2c1-1.2,2.7-1.9,4.4-1.9h18.9c2.4,0,4.5,1.3,5.2,3.2l13.5,36.1
											c1.1,3,2.2,5.9,3.2,8.7c1.1-2.7,2.4-5.6,3.8-8.7l16.6-36.4c0.8-1.7,2.8-2.9,5-2.9H439c2.2,0,4.3,1.2,5.1,3l15.7,35.6
											c1.4,3.2,2.7,6.2,3.9,9c1-2.7,2.1-5.6,3.4-8.7l14.5-35.7c0.7-1.8,2.8-3.1,5.1-3.1h18.2c1.8,0,3.5,0.7,4.5,2
											C509.9,224.8,510.1,226.3,509.5,227.7"/>
									</g>
									<g>
										<defs>
											<path id="SVGID_7_" d="M158.5,227.7l-32.7,71.1c-0.8,1.8-2.8,2.9-5.1,2.9h-16.8c-2.2,0-4.2-1.1-5-2.9l-15.5-33.9
												c-1.5-3.3-2.9-6.5-4.2-9.7c-1.4,3.5-2.9,6.8-4.4,9.9L58.4,299c-0.8,1.7-2.8,2.8-5,2.8H36.6c-2.3,0-4.3-1.2-5.1-3
												L0.9,227.6c-0.6-1.4-0.4-2.9,0.7-4.2c1-1.2,2.7-1.9,4.4-1.9h18.9c2.4,0,4.5,1.3,5.2,3.2l13.5,36.1c1.1,3,2.2,5.9,3.1,8.7
												c1.2-2.7,2.5-5.6,3.8-8.7L67,224.5c0.8-1.7,2.8-2.9,5-2.9h15.6c2.3,0,4.3,1.2,5.1,3l15.7,35.6c1.4,3.2,2.7,6.2,3.8,9
												c1-2.7,2.1-5.6,3.4-8.7l14.5-35.7c0.7-1.8,2.8-3.1,5.1-3.1h18.2c1.8,0,3.4,0.7,4.5,2
												C158.9,224.8,159.1,226.3,158.5,227.7 M334,227.7l-32.7,71.1c-0.8,1.8-2.8,2.9-5,2.9h-16.8c-2.2,0-4.2-1.1-5.1-2.9
												l-15.5-33.9c-1.5-3.3-2.9-6.5-4.2-9.7c-1.4,3.5-2.9,6.8-4.4,9.9L233.9,299c-0.8,1.7-2.8,2.8-5,2.8h-16.8
												c-2.3,0-4.3-1.2-5.1-3l-30.6-71.1c-0.6-1.4-0.4-2.9,0.7-4.2c1-1.2,2.7-1.9,4.4-1.9h18.9c2.4,0,4.5,1.3,5.2,3.2l13.4,36.1
												c1.1,3,2.2,5.9,3.2,8.7c1.2-2.7,2.4-5.6,3.8-8.7l16.6-36.4c0.8-1.7,2.8-2.9,5-2.9h15.6c2.3,0,4.3,1.2,5.1,3l15.7,35.6
												c1.4,3.2,2.7,6.2,3.8,9c1-2.7,2.1-5.6,3.4-8.7l14.5-35.7c0.7-1.8,2.8-3.1,5.2-3.1h18.2c1.8,0,3.5,0.7,4.5,2
												C334.4,224.8,334.7,226.3,334,227.7 M509.5,227.7l-32.7,71.1c-0.8,1.8-2.8,2.9-5.1,2.9H455c-2.2,0-4.3-1.1-5-2.9
												l-15.5-33.9c-1.6-3.3-2.9-6.5-4.2-9.7c-1.4,3.5-2.9,6.8-4.4,9.9L409.5,299c-0.8,1.7-2.8,2.8-5,2.8h-16.7
												c-2.3,0-4.3-1.2-5.1-3l-30.6-71.1c-0.6-1.4-0.4-2.9,0.7-4.2c1-1.2,2.7-1.9,4.4-1.9h18.9c2.4,0,4.5,1.3,5.2,3.2l13.5,36.1
												c1.1,3,2.2,5.9,3.2,8.7c1.1-2.7,2.4-5.6,3.8-8.7l16.6-36.4c0.8-1.7,2.8-2.9,5-2.9H439c2.2,0,4.3,1.2,5.1,3l15.7,35.6
												c1.4,3.2,2.7,6.2,3.9,9c1-2.7,2.1-5.6,3.4-8.7l14.5-35.7c0.7-1.8,2.8-3.1,5.1-3.1h18.2c1.8,0,3.5,0.7,4.5,2
												C509.9,224.8,510.1,226.3,509.5,227.7"/>
										</defs>
										<clipPath id="SVGID_9_">
											<use xlink:href="#SVGID_7_"  style="overflow:visible;"/>
										</clipPath>
										<g class="st3">
											<g>
												<g>
													
														<linearGradient id="SVGID_10_" gradientUnits="userSpaceOnUse" x1="0.6" y1="251.65" x2="512.1" y2="251.65" gradientTransform="matrix(1 0 0 -1 0 514)">
														<stop  offset="0" style="stop-color:#210050"/>
														<stop  offset="1" style="stop-color:#4D0030"/>
													</linearGradient>
													<rect id="SVGID_8_" x="0.6" y="220.9" class="st4" width="511.5" height="82.9"/>
												</g>
												<g>
													<defs>
														<rect id="SVGID_11_" x="0.6" y="220.9" width="511.5" height="82.9"/>
													</defs>
													<clipPath id="SVGID_13_">
														<use xlink:href="#SVGID_11_"  style="overflow:visible;"/>
													</clipPath>
													
														<linearGradient id="SVGID_14_" gradientUnits="userSpaceOnUse" x1="-68.6" y1="252.4" x2="579" y2="252.4" gradientTransform="matrix(1 0 0 -1 0 514)">
														<stop  offset="0" style="stop-color:#210050"/>
														<stop  offset="1" style="stop-color:#4D0030"/>
													</linearGradient>
													<rect x="-68.6" y="152.4" class="st5" width="647.6" height="218.4"/>
												</g>
											</g>
										</g>
									</g>
								</g>
							</g>
						</g>
					</g>
				</g>
			</g>
		</g>
	</g>
</g>
<g>
	<g>
		<g>
			
				<linearGradient id="SVGID_16_" gradientUnits="userSpaceOnUse" x1="14.4" y1="424.45" x2="498.2" y2="424.45" gradientTransform="matrix(1 0 0 -1 0 514)">
				<stop  offset="0" style="stop-color:#210050"/>
				<stop  offset="1" style="stop-color:#4D0030"/>
			</linearGradient>
			<path id="SVGID_12_" class="st6" d="M55.9,179.4c5.5-14.3,12.5-28,20.7-40.7c1.2,0.2,2.3,0.7,3.6,0.7H117
				c-3.9,12.7-6.9,26.1-9.6,39.9h40.2c3-14,6.6-27.5,11-39.9H354c4.4,12.5,8,26,11,39.9h40.2c-2.6-13.8-5.7-27.3-9.6-39.9h36.8
				c1.3,0,2.4-0.5,3.6-0.7c8.2,12.7,15.1,26.3,20.7,40.7h41.5C465.1,75.2,369.3-0.3,256.3-0.3S47.5,75.2,14.4,179.4H55.9z
				 M403.6,99.5h-23.2c-5-10.8-10.6-21-16.6-30.3C378.2,77.7,391.5,87.9,403.6,99.5z M256.3,39.6c30.3,0,58.4,23,79.5,59.9h-159
				C198,62.6,226,39.6,256.3,39.6z M148.9,69.2c-6,9.4-11.6,19.5-16.6,30.3h-23.2C121.1,87.9,134.5,77.7,148.9,69.2z"/>
		</g>
		<g>
			<defs>
				<path id="SVGID_17_" d="M55.9,179.4c5.5-14.3,12.5-28,20.7-40.7c1.2,0.2,2.3,0.7,3.6,0.7H117c-3.9,12.7-6.9,26.1-9.6,39.9h40.2
					c3-14,6.6-27.5,11-39.9H354c4.4,12.5,8,26,11,39.9h40.2c-2.6-13.8-5.7-27.3-9.6-39.9h36.8c1.3,0,2.4-0.5,3.6-0.7
					c8.2,12.7,15.1,26.3,20.7,40.7h41.5C465.1,75.2,369.3-0.3,256.3-0.3S47.5,75.2,14.4,179.4H55.9z M403.6,99.5h-23.2
					c-5-10.8-10.6-21-16.6-30.3C378.2,77.7,391.5,87.9,403.6,99.5z M256.3,39.6c30.3,0,58.4,23,79.5,59.9h-159
					C198,62.6,226,39.6,256.3,39.6z M148.9,69.2c-6,9.4-11.6,19.5-16.6,30.3h-23.2C121.1,87.9,134.5,77.7,148.9,69.2z"/>
			</defs>
			<clipPath id="SVGID_18_">
				<use xlink:href="#SVGID_17_"  style="overflow:visible;"/>
			</clipPath>
			<g class="st7">
				<g>
					<g>
						
							<linearGradient id="SVGID_20_" gradientUnits="userSpaceOnUse" x1="-7575.2998" y1="2933.6504" x2="18967.8008" y2="2933.6504" gradientTransform="matrix(1 0 0 -1 0 514)">
							<stop  offset="0" style="stop-color:#210050"/>
							<stop  offset="1" style="stop-color:#4D0030"/>
						</linearGradient>
						<rect id="SVGID_15_" x="-7575.3" y="-16866.3" class="st8" width="26543.1" height="28893.3"/>
					</g>
					<g>
						<defs>
							<rect id="SVGID_21_" x="-7575.3" y="-16866.3" width="26543.1" height="28893.3"/>
						</defs>
						<clipPath id="SVGID_23_">
							<use xlink:href="#SVGID_21_"  style="overflow:visible;"/>
						</clipPath>
						
							<linearGradient id="SVGID_24_" gradientUnits="userSpaceOnUse" x1="-54.7" y1="424.5" x2="567.4" y2="424.5" gradientTransform="matrix(1 0 0 -1 0 514)">
							<stop  offset="0" style="stop-color:#210050"/>
							<stop  offset="1" style="stop-color:#4D0030"/>
						</linearGradient>
						<rect x="-54.7" y="-69.5" class="st9" width="622.1" height="318"/>
					</g>
				</g>
			</g>
		</g>
	</g>
</g>
<g>
	<g>
		<g>
			
				<linearGradient id="SVGID_25_" gradientUnits="userSpaceOnUse" x1="14.4" y1="92.65" x2="498.2" y2="92.65" gradientTransform="matrix(1 0 0 -1 0 514)">
				<stop  offset="0" style="stop-color:#210050"/>
				<stop  offset="1" style="stop-color:#4D0030"/>
			</linearGradient>
			<path id="SVGID_19_" class="st10" d="M456.7,331.5c-5.5,14.4-12.5,28-20.7,40.7c-1.2-0.2-2.3-0.8-3.6-0.8h-36.8
				c3.9-12.6,6.9-26.1,9.6-39.9H365c-3,14-6.6,27.5-11,39.9H158.6c-4.4-12.4-8-26-11-39.9h-40.2c2.7,13.8,5.7,27.3,9.6,39.9H80.2
				c-1.3,0-2.4,0.5-3.6,0.8c-8.2-12.7-15.1-26.3-20.7-40.7H14.4c33.1,104.2,129,179.7,241.9,179.7s208.8-75.6,241.9-179.7H456.7z
				 M109.1,411.3h23.2c5.1,10.8,10.6,21,16.6,30.3C134.5,433.1,121.2,423,109.1,411.3z M256.3,471.2c-30.4,0-58.4-23-79.5-59.9
				h158.9C314.7,448.2,286.7,471.2,256.3,471.2z M363.7,441.7c6-9.3,11.6-19.5,16.7-30.3h23.2C391.5,423,378.2,433.1,363.7,441.7z"
				/>
		</g>
		<g>
			<defs>
				<path id="SVGID_26_" d="M456.7,331.5c-5.5,14.4-12.5,28-20.7,40.7c-1.2-0.2-2.3-0.8-3.6-0.8h-36.8c3.9-12.6,6.9-26.1,9.6-39.9
					H365c-3,14-6.6,27.5-11,39.9H158.6c-4.4-12.4-8-26-11-39.9h-40.2c2.7,13.8,5.7,27.3,9.6,39.9H80.2c-1.3,0-2.4,0.5-3.6,0.8
					c-8.2-12.7-15.1-26.3-20.7-40.7H14.4c33.1,104.2,129,179.7,241.9,179.7s208.8-75.6,241.9-179.7H456.7z M109.1,411.3h23.2
					c5.1,10.8,10.6,21,16.6,30.3C134.5,433.1,121.2,423,109.1,411.3z M256.3,471.2c-30.4,0-58.4-23-79.5-59.9h158.9
					C314.7,448.2,286.7,471.2,256.3,471.2z M363.7,441.7c6-9.3,11.6-19.5,16.7-30.3h23.2C391.5,423,378.2,433.1,363.7,441.7z"/>
			</defs>
			<clipPath id="SVGID_27_">
				<use xlink:href="#SVGID_26_"  style="overflow:visible;"/>
			</clipPath>
			<g class="st11">
				<g>
					<g>
						
							<linearGradient id="SVGID_28_" gradientUnits="userSpaceOnUse" x1="-7575.2998" y1="2933.6504" x2="18967.8008" y2="2933.6504" gradientTransform="matrix(1 0 0 -1 0 514)">
							<stop  offset="0" style="stop-color:#210050"/>
							<stop  offset="1" style="stop-color:#4D0030"/>
						</linearGradient>
						<rect id="SVGID_22_" x="-7575.3" y="-16866.3" class="st12" width="26543.1" height="28893.3"/>
					</g>
					<g>
						<defs>
							<rect id="SVGID_29_" x="-7575.3" y="-16866.3" width="26543.1" height="28893.3"/>
						</defs>
						<clipPath id="SVGID_30_">
							<use xlink:href="#SVGID_29_"  style="overflow:visible;"/>
						</clipPath>
						
							<linearGradient id="SVGID_31_" gradientUnits="userSpaceOnUse" x1="-54.7" y1="92.7" x2="567.4" y2="92.7" gradientTransform="matrix(1 0 0 -1 0 514)">
							<stop  offset="0" style="stop-color:#210050"/>
							<stop  offset="1" style="stop-color:#4D0030"/>
						</linearGradient>
						<rect x="-54.7" y="262.3" class="st13" width="622.1" height="318"/>
					</g>
				</g>
			</g>
		</g>
	</g>
</g>
</svg>
